<svg xmlns="http://www.w3.org/2000/svg" xmlns:xlink="http://www.w3.org/1999/xlink" viewBox="0 0 287.79 140.65"><defs><style>.cls-1,.cls-15{fill:#fff;}.cls-10,.cls-11,.cls-12,.cls-13,.cls-14,.cls-2,.cls-3,.cls-4,.cls-5,.cls-6,.cls-7,.cls-8,.cls-9{fill:none;stroke-linecap:round;}.cls-2{stroke:#fff;stroke-width:5.64px;filter:url(#filter);}.cls-3{stroke:#eaeaea;stroke-width:5.17px;filter:url(#filter-2);}.cls-10,.cls-11,.cls-12,.cls-13,.cls-14,.cls-3,.cls-4,.cls-5,.cls-6,.cls-7,.cls-8,.cls-9{stroke-linejoin:round;}.cls-4{stroke:#d4d4d4;stroke-width:4.7px;filter:url(#filter-3);}.cls-5{stroke:#bfbfbf;stroke-width:4.23px;filter:url(#filter-4);}.cls-6{stroke:#aaa;stroke-width:3.76px;filter:url(#filter-5);}.cls-7{stroke:#959595;stroke-width:3.29px;filter:url(#filter-6);}.cls-8{stroke:#7f7f7f;stroke-width:2.82px;filter:url(#filter-7);}.cls-9{stroke:#6a6a6a;stroke-width:2.35px;filter:url(#filter-8);}.cls-10{stroke:#555;stroke-width:1.88px;filter:url(#filter-9);}.cls-11{stroke:#404040;stroke-width:1.41px;filter:url(#filter-10);}.cls-12{stroke:#2b2b2b;stroke-width:0.94px;filter:url(#filter-11);}.cls-13{stroke:#151515;stroke-width:0.47px;filter:url(#filter-12);}.cls-14{stroke:#000;stroke-width:0px;}.cls-15{font-size:20px;font-family:D-DINExp, D-DIN Exp;}.cls-16{font-family:D-DINExp-Bold, D-DIN Exp;font-weight:700;}</style><filter id="filter" x="0" y="0" width="105" height="132" filterUnits="userSpaceOnUse"><feOffset input="SourceAlpha"/><feGaussianBlur stdDeviation="2.66" result="blur"/><feFlood flood-color="#fff"/><feComposite operator="in" in2="blur"/><feComposite in="SourceGraphic"/></filter><filter id="filter-2" x="1.67" y="1.67" width="96" height="130" filterUnits="userSpaceOnUse"><feOffset input="SourceAlpha"/><feGaussianBlur stdDeviation="2.44" result="blur-2"/><feFlood flood-color="#fff"/><feComposite operator="in" in2="blur-2"/><feComposite in="SourceGraphic"/></filter><filter id="filter-3" x="2.33" y="2.33" width="88" height="129" filterUnits="userSpaceOnUse"><feOffset input="SourceAlpha"/><feGaussianBlur stdDeviation="2.22" result="blur-3"/><feFlood flood-color="#fff"/><feComposite operator="in" in2="blur-3"/><feComposite in="SourceGraphic"/></filter><filter id="filter-4" x="3" y="3" width="79" height="127" filterUnits="userSpaceOnUse"><feOffset input="SourceAlpha"/><feGaussianBlur stdDeviation="2" result="blur-4"/><feFlood flood-color="#fff"/><feComposite operator="in" in2="blur-4"/><feComposite in="SourceGraphic"/></filter><filter id="filter-5" x="3.66" y="3.66" width="71" height="125" filterUnits="userSpaceOnUse"><feOffset input="SourceAlpha"/><feGaussianBlur stdDeviation="1.77" result="blur-5"/><feFlood flood-color="#fff"/><feComposite operator="in" in2="blur-5"/><feComposite in="SourceGraphic"/></filter><filter id="filter-6" x="5.33" y="4.33" width="61" height="124" filterUnits="userSpaceOnUse"><feOffset input="SourceAlpha"/><feGaussianBlur stdDeviation="1.55" result="blur-6"/><feFlood flood-color="#fff"/><feComposite operator="in" in2="blur-6"/><feComposite in="SourceGraphic"/></filter><filter id="filter-7" x="5.99" y="5.99" width="52" height="121" filterUnits="userSpaceOnUse"><feOffset input="SourceAlpha"/><feGaussianBlur stdDeviation="1.33" result="blur-7"/><feFlood flood-color="#fff"/><feComposite operator="in" in2="blur-7"/><feComposite in="SourceGraphic"/></filter><filter id="filter-8" x="6.66" y="6.66" width="44" height="120" filterUnits="userSpaceOnUse"><feOffset input="SourceAlpha"/><feGaussianBlur stdDeviation="1.11" result="blur-8"/><feFlood flood-color="#fff"/><feComposite operator="in" in2="blur-8"/><feComposite in="SourceGraphic"/></filter><filter id="filter-9" x="7.32" y="7.32" width="36" height="119" filterUnits="userSpaceOnUse"><feOffset input="SourceAlpha"/><feGaussianBlur stdDeviation="0.89" result="blur-9"/><feFlood flood-color="#fff"/><feComposite operator="in" in2="blur-9"/><feComposite in="SourceGraphic"/></filter><filter id="filter-10" x="8.99" y="7.99" width="26" height="116" filterUnits="userSpaceOnUse"><feOffset input="SourceAlpha"/><feGaussianBlur stdDeviation="0.67" result="blur-10"/><feFlood flood-color="#fff"/><feComposite operator="in" in2="blur-10"/><feComposite in="SourceGraphic"/></filter><filter id="filter-11" x="6.66" y="9.66" width="21" height="114" filterUnits="userSpaceOnUse"><feOffset input="SourceAlpha"/><feGaussianBlur stdDeviation="0.44" result="blur-11"/><feFlood flood-color="#fff"/><feComposite operator="in" in2="blur-11"/><feComposite in="SourceGraphic"/></filter><filter id="filter-12" x="9.32" y="10.32" width="11" height="113" filterUnits="userSpaceOnUse"><feOffset input="SourceAlpha"/><feGaussianBlur stdDeviation="0.22" result="blur-12"/><feFlood flood-color="#fff"/><feComposite operator="in" in2="blur-12"/><feComposite in="SourceGraphic"/></filter></defs><g id="图层_2" data-name="图层 2"><g id="图层_1-2" data-name="图层 1"><path class="cls-1" d="M119.25,26.78a21.11,21.11,0,0,1-4.68,7.74,19.64,19.64,0,0,0,8.08,4.06,6.84,6.84,0,0,0-1,1.38,20.32,20.32,0,0,1-8.21-4.38A23,23,0,0,1,105.1,40a8.28,8.28,0,0,0-.92-1.38,21.51,21.51,0,0,0,8.16-4.14,22.53,22.53,0,0,1-4.8-7.74h-3.08V25.32h17.93v1.46Zm-10.17,0a20.09,20.09,0,0,0,4.37,6.7,18.35,18.35,0,0,0,4.12-6.7Zm4.25-1.5a16.24,16.24,0,0,0-1.49-3.14l1.54-.44A15.9,15.9,0,0,1,115,24.76Z"/><path class="cls-1" d="M131.66,22.26c-.12.3-.26.56-.4.86a49,49,0,0,1,4.61,5.32l-1.07,1a48.88,48.88,0,0,0-4.2-5.1A20,20,0,0,1,125.68,30a8.9,8.9,0,0,0-1.08-1,17.28,17.28,0,0,0,5.68-7.12ZM133,38.48c.92,0,1.06-.42,1.17-2.76a4.08,4.08,0,0,0,1.32.54c-.19,2.76-.63,3.52-2.39,3.52h-3.7c-1.92,0-2.52-.44-2.52-2.18V29.08h7.24s0,.42,0,.6c-.2,3.44-.38,4.78-.84,5.28a1.61,1.61,0,0,1-1.14.52,16.49,16.49,0,0,1-2,0,4.07,4.07,0,0,0-.36-1.28,15.5,15.5,0,0,0,1.7.08.71.71,0,0,0,.58-.18c.22-.3.42-1.26.58-3.68h-4.34v7.2c0,.74.18.88,1.2.88Zm5.25-3.32h-1.42v-11h1.42Zm3.92-13v16c0,1-.28,1.4-.9,1.64a11.81,11.81,0,0,1-3.6.26,6.63,6.63,0,0,0-.52-1.42c1.4.06,2.66,0,3,0s.52-.14.52-.5v-16Z"/><path class="cls-1" d="M152,35a6.23,6.23,0,0,0,.54,1.22,38.42,38.42,0,0,0-4.38,3.4,4.86,4.86,0,0,0-.8-1.24,2.25,2.25,0,0,0,1-1.8V29.48h-2.8V28.06h4.24v8.56ZM150.1,26.2a25.72,25.72,0,0,0-3-3.12l1-.9a24.55,24.55,0,0,1,3.08,3Zm5.71-1.44a5.6,5.6,0,0,1-3.51,5.4,5.58,5.58,0,0,0-1-1.1c2.62-1.2,3.07-2.86,3.07-4.34v-2.2h6.32v4.64c0,.56.06.74.36.74h1.38a4.67,4.67,0,0,0,.94-.1,12.53,12.53,0,0,0,.14,1.28,4.05,4.05,0,0,1-1.06.1H161c-1.36,0-1.66-.58-1.66-2.06v-3.2h-3.52Zm6.74,6.18a12.38,12.38,0,0,1-3.84,5.84,15.21,15.21,0,0,0,5.08,2,5,5,0,0,0-.92,1.32,14.81,14.81,0,0,1-5.36-2.44,18.15,18.15,0,0,1-5.34,2.4,4.83,4.83,0,0,0-.75-1.32,15.9,15.9,0,0,0,5-2,14.34,14.34,0,0,1-3.35-4.7l.28-.1h-1v-1.4h9.09l.26-.06Zm-8.13,1a11.88,11.88,0,0,0,3.13,4,10.83,10.83,0,0,0,3.12-4Z"/><path class="cls-1" d="M173.26,34.9a13.76,13.76,0,0,0,.48,1.3c-3.72,2.64-4.28,3.08-4.6,3.5a5.72,5.72,0,0,0-.78-1.36,2.07,2.07,0,0,0,1-1.66V29.52h-3.14V28.06h4.64v8.48Zm-2.14-8.66A24.37,24.37,0,0,0,168,23.12l1-1a26,26,0,0,1,3.18,3Zm13.19,3.68h-5.06V40.08h-1.54V29.92h-5.09v-1.5h5.09V21.88h1.54v6.54h5.06Z"/><path class="cls-1" d="M194.64,31.36c-.58-.5-2.06-1.56-3.06-2.24a8.48,8.48,0,0,1-4,3.22,3.49,3.49,0,0,0-.94-1c2.54-1,3.6-2.32,4-3.54h-3.84V26.56h4.1a4.47,4.47,0,0,0,0-.72V24.68H189.3A9.65,9.65,0,0,1,188,26.46a10,10,0,0,0-1.2-.72,9.52,9.52,0,0,0,2.26-4l1.34.26a12.79,12.79,0,0,1-.54,1.46h5.44v1.2H192.4v1.16a4.47,4.47,0,0,1,0,.72h3.48v1.22h-3.7a2.19,2.19,0,0,1-.1.34c.78.42,3.08,1.82,3.64,2.22Zm-4.9.52H202V40h-1.5v-.7H191.2v.74h-1.46Zm1.46,1.22V35h9.25V33.1Zm9.25,5v-2H191.2v2Zm3.2-14.7v6.94h-7V23.42Zm-1.46,1.34h-4.13V29h4.13Z"/><path class="cls-1" d="M211.44,36.64c.4.16.78.52,1.48.92a10.79,10.79,0,0,0,5.06.8,73.28,73.28,0,0,0,7.73-.4,5.22,5.22,0,0,0-.44,1.54c-1.74.1-5.25.2-7.33.2-2.32,0-4-.18-5.26-.9-.74-.44-1.32-1-1.72-1-.66,0-1.66,1-2.64,2.08l-.94-1.3A9.55,9.55,0,0,1,210,36.78v-6h-2.6v-1.4h4Zm-.6-10a19.77,19.77,0,0,0-3-3.22l1.1-.78A20.21,20.21,0,0,1,212,25.74Zm4.3-1a11.79,11.79,0,0,1-1.4,2.08A8.37,8.37,0,0,0,212.5,27a12.55,12.55,0,0,0,2.64-4.9l1.38.32c-.2.64-.46,1.3-.72,1.92h2.46V21.84h1.46v2.48h4.69v1.3h-4.69v2.54h5.55v1.3H212.52v-1.3h5.74V25.62Zm-1,11V31.08h9.63v5.58Zm1.4-1.24h6.77v-3.1H215.5Z"/><path class="cls-1" d="M245.61,33.4v1.3h-8.27C236.2,37.24,234,39,229.52,40a4.43,4.43,0,0,0-.84-1.28c3.8-.8,5.84-2.1,6.94-4h-7.14V33.4h7.74a24.73,24.73,0,0,0,.82-6.92h1.54a29.48,29.48,0,0,1-.78,6.92Zm-15.29-5.28h-1.46v-4h7.72a14.83,14.83,0,0,0-1-1.94l1.46-.46a15.85,15.85,0,0,1,1.3,2.4h6.81v4h-1.53V25.48h-13.3Zm.4,1.4a14.7,14.7,0,0,1,3.12,2.2l-.9,1.12a14.56,14.56,0,0,0-3.08-2.32Zm4,.22a13.5,13.5,0,0,0-2.92-2.3l.9-.94a12.62,12.62,0,0,1,3,2.18Zm3.7,5.52a30.76,30.76,0,0,1,7.09,3.54l-.91,1.14a29.8,29.8,0,0,0-6.9-3.6Z"/><path class="cls-1" d="M253.7,35.38c-1.8.5-3.62,1-5.12,1.42l-.28-1.24c1.36-.3,3.3-.82,5.26-1.32Zm2.16-4.28s0,.44,0,.62c-.32,5-.62,6.9-1.22,7.54a1.7,1.7,0,0,1-1.32.58c-.48,0-1.42,0-2.36,0a2.94,2.94,0,0,0-.42-1.26c1,.1,1.9.12,2.28.12s.52,0,.7-.24c.42-.42.72-2,1-6.12h-5.32c.24-1.74.5-4.72.62-6.84l1.28.06c-.12,1.74-.32,3.9-.5,5.56H253c.24-1.9.5-4.7.66-7.1h-4.74V22.7H255c-.2,2.68-.48,6.24-.74,8.4Zm6.33-9c-.15.32-.31.6-.44.9A20.63,20.63,0,0,0,267,28.18a5.72,5.72,0,0,0-.74,1.38A26.42,26.42,0,0,1,261,24.24a18.48,18.48,0,0,1-5,5.36c-.18-.28-.64-.9-.88-1.18a15.66,15.66,0,0,0,5.76-6.76Zm4.1,9.16a70.68,70.68,0,0,1-2.92,6.54h3.06v1.3H256.3V37.8h5.78a46,46,0,0,0,2.85-6.9ZM258.1,31a26.56,26.56,0,0,1,1.32,4.72l-1.22.34a23.28,23.28,0,0,0-1.26-4.78Zm6.07-1.76h-5.93V28h5.93Zm-2.95,6.3a31.53,31.53,0,0,0-.8-4.76l1.19-.16a35.59,35.59,0,0,1,.85,4.74Z"/><path class="cls-1" d="M287,38.16V39.5H269.4V38.16h8V35.52h-6.2V34.2h6.2V32.1h1.5v2.1h6.35v1.32h-6.35v2.64ZM271.08,27.08h-1.44V23.56h8c-.22-.5-.52-1.08-.78-1.54l1.42-.42a16.75,16.75,0,0,1,1,2h7.41v3.52h-1.5V24.94H271.08Zm13.13,5.62a13.16,13.16,0,0,0-1.15-1.28c-9.48.74-10.42.8-11,1.06a13.2,13.2,0,0,0-.44-1.36,3.34,3.34,0,0,0,1.36-.72A22.67,22.67,0,0,0,275.7,28h-4V26.7h13.18V28h-7.22a28.53,28.53,0,0,1-3.38,2.9l7.72-.54c-.54-.5-1.1-1-1.62-1.4l1.1-.7a28.17,28.17,0,0,1,3.93,3.62Z"/><path class="cls-2" d="M47.47,11.66l-35.7.18V120.62l36.76.32a69.71,69.71,0,0,0,11.27-.7,34.69,34.69,0,0,0,9.07-2.61,33.81,33.81,0,0,0,8.26-5,35.08,35.08,0,0,0,7-8.18A58.51,58.51,0,0,0,91.6,85.8a91.54,91.54,0,0,0,1.71-20,96.74,96.74,0,0,0-2.06-20,54.08,54.08,0,0,0-7.78-18.53A33.78,33.78,0,0,0,68,14.37a34.07,34.07,0,0,0-8.73-2.12A90.5,90.5,0,0,0,47.47,11.66Z"/><path class="cls-3" d="M77.5,27.65a33.11,33.11,0,0,0-12-11.54c-.73-.41-1.5-.79-2.28-1.14a31.35,31.35,0,0,0-8-2.3l-1.08-.18c-1.74-.27-3.47-.44-5.21-.58-.88-.08-1.77-.11-2.65-.18-.61-.05-1.22-.08-1.83-.08l-.44,0L11.77,13.61v105.2l32.91,2.1.79,0a10.66,10.66,0,0,0,1.38-.09c.72-.08,1.44-.11,2.15-.19,1.18-.12,2.35-.26,3.52-.44s2.19-.38,3.28-.62a34.76,34.76,0,0,0,3.57-1,36.45,36.45,0,0,0,4.74-2,33.83,33.83,0,0,0,6-3.81c.53-.42,1.05-.87,1.56-1.33a35.79,35.79,0,0,0,6.43-8.16A60.38,60.38,0,0,0,85,85a85.24,85.24,0,0,0,1.49-13.34c.08-2.08.1-4.16.08-6.23a101.09,101.09,0,0,0-1.89-19.54A55.07,55.07,0,0,0,77.5,27.65Z"/><path class="cls-4" d="M71.52,28A32.06,32.06,0,0,0,60.66,16.74c-.67-.41-1.36-.8-2.07-1.16a29.47,29.47,0,0,0-7.28-2.5l-1-.21c-1.58-.33-3.17-.56-4.74-.78-.81-.12-1.61-.16-2.41-.29a9.42,9.42,0,0,0-1.66-.16l-.41,0-29.34,3.7V117l29.92,3.88c.23,0,.47.07.71.09a3.7,3.7,0,0,0,1.26-.18c.64-.15,1.3-.2,2-.32,1.06-.2,2.13-.4,3.2-.66s2-.51,3-.8A30.59,30.59,0,0,0,55,117.87a35.78,35.78,0,0,0,4.31-2.19,33.68,33.68,0,0,0,5.48-4q.72-.64,1.41-1.35a36.45,36.45,0,0,0,5.85-8.14,62.75,62.75,0,0,0,6.2-18,89.25,89.25,0,0,0,1.36-13q.1-3,.07-6.09A106.6,106.6,0,0,0,78,45.94,56.2,56.2,0,0,0,71.52,28Z"/><path class="cls-5" d="M65.55,28.37a31.36,31.36,0,0,0-9.78-11q-.9-.62-1.86-1.17a28,28,0,0,0-6.55-2.7l-.89-.24c-1.42-.4-2.85-.69-4.26-1-.73-.16-1.47-.21-2.17-.4a5.33,5.33,0,0,0-1.5-.24l-.36.08L11.77,17.16v98l26.92,5.65c.22.05.43.11.65.14a1.69,1.69,0,0,0,1.13-.27,16.37,16.37,0,0,0,1.76-.47c1-.27,1.92-.54,2.88-.87s1.78-.63,2.69-1a29.17,29.17,0,0,0,2.92-1.31,40.57,40.57,0,0,0,3.88-2.37,33.14,33.14,0,0,0,4.92-4.13c.43-.44.86-.9,1.27-1.37a37.49,37.49,0,0,0,5.27-8.12,66,66,0,0,0,5.58-17.71,93.89,93.89,0,0,0,1.22-12.75c.07-2,.09-4,.07-5.95A112.57,112.57,0,0,0,71.38,46,58.07,58.07,0,0,0,65.55,28.37Z"/><path class="cls-6" d="M59.57,28.74A30.61,30.61,0,0,0,50.89,18c-.54-.42-1.1-.82-1.67-1.19a25.66,25.66,0,0,0-5.82-2.89l-.78-.28c-1.28-.47-2.55-.82-3.8-1.18a17.61,17.61,0,0,0-1.92-.51,2.34,2.34,0,0,0-1.33-.32l-.32.1L11.77,18.94v94.45l23.93,7.44a5.58,5.58,0,0,0,.58.18,1.12,1.12,0,0,0,1-.37,12.61,12.61,0,0,0,1.57-.6c.84-.35,1.69-.69,2.56-1.09s1.58-.76,2.38-1.17a28.05,28.05,0,0,0,2.6-1.49c1.13-.75,2.23-1.57,3.45-2.56a33.33,33.33,0,0,0,4.38-4.28c.38-.45.76-.91,1.13-1.39A39.2,39.2,0,0,0,60,100a70.29,70.29,0,0,0,5-17.39,101.52,101.52,0,0,0,1.09-12.46c0-1.93.07-3.86,0-5.8a121.28,121.28,0,0,0-1.37-18.25A60.69,60.69,0,0,0,59.57,28.74Z"/><path class="cls-7" d="M53.6,29.1A30.7,30.7,0,0,0,46,18.61c-.48-.42-1-.82-1.46-1.21a25,25,0,0,0-5.09-3.08L38.76,14c-1.12-.53-2.24-.94-3.32-1.37A12.31,12.31,0,0,0,33.76,12a1.59,1.59,0,0,0-1.16-.4l-.29.13-20.54,9v90.87l20.94,9.22a2.72,2.72,0,0,0,.5.22c.29.08.59-.06.89-.45a12.45,12.45,0,0,0,1.37-.74c.72-.42,1.47-.83,2.23-1.31s1.38-.88,2.09-1.36a24.07,24.07,0,0,0,2.27-1.66c1-.83,1.95-1.7,3-2.74a35.24,35.24,0,0,0,3.83-4.44q.51-.69,1-1.41A41.94,41.94,0,0,0,54,98.83a76.63,76.63,0,0,0,4.35-17.07,111.94,111.94,0,0,0,.95-12.16c.05-1.88.06-3.77.05-5.66a131.29,131.29,0,0,0-1.2-17.82A64.52,64.52,0,0,0,53.6,29.1Z"/><path class="cls-8" d="M47.62,29.47a31.19,31.19,0,0,0-6.51-10.23c-.41-.43-.82-.84-1.25-1.23a24.56,24.56,0,0,0-4.36-3.27l-.59-.36c-1-.61-1.94-1.07-2.85-1.57a10.28,10.28,0,0,0-1.44-.73,1.12,1.12,0,0,0-1-.48l-.24.15L11.77,22.49v87.28l18,11,.43.26c.25,0,.51-.08.76-.54a9.31,9.31,0,0,0,1.17-.89c.6-.48,1.26-1,1.92-1.53l1.79-1.53a26,26,0,0,0,2-1.84c.84-.9,1.67-1.84,2.58-2.92a39.06,39.06,0,0,0,3.29-4.6c.28-.47.57-.94.84-1.43A46.84,46.84,0,0,0,48,97.7,84.92,84.92,0,0,0,51.69,81c.47-3.93.72-7.9.81-11.87,0-1.83.06-3.67,0-5.52a144.53,144.53,0,0,0-1-17.39A69.08,69.08,0,0,0,47.62,29.47Z"/><path class="cls-9" d="M41.65,29.83a33.1,33.1,0,0,0-5.43-10c-.34-.42-.69-.84-1-1.24a26,26,0,0,0-3.64-3.47l-.49-.39c-.81-.68-1.63-1.22-2.37-1.77a7.79,7.79,0,0,0-1.2-.84c-.28-.48-.56-.58-.83-.56l-.21.18L11.77,24.26V108l15,12.79.36.31c.21,0,.42-.09.63-.64a9.75,9.75,0,0,0,1-1c.49-.54,1-1.1,1.6-1.75s1-1.12,1.49-1.71,1.1-1.3,1.62-2c.7-1,1.39-2,2.15-3.11a44.08,44.08,0,0,0,2.74-4.75c.24-.48.48-1,.71-1.45a55,55,0,0,0,2.92-8A96.65,96.65,0,0,0,45,80.15c.4-3.83.6-7.71.68-11.58,0-1.78,0-3.57,0-5.37a165.91,165.91,0,0,0-.86-17A77.71,77.71,0,0,0,41.65,29.83Z"/><path class="cls-10" d="M35.67,30.2a36.31,36.31,0,0,0-4.34-9.71c-.27-.43-.55-.85-.83-1.26a29.77,29.77,0,0,0-2.91-3.67q-.21-.21-.39-.42c-.66-.76-1.33-1.37-1.9-2a7.86,7.86,0,0,0-1-1c-.22-.54-.45-.65-.67-.63l-.16.2L11.77,26v80.12l12,14.58.29.34c.16.05.33-.1.5-.72a9.45,9.45,0,0,0,.78-1.17c.38-.59.83-1.22,1.28-2l1.19-1.9c.45-.7.88-1.41,1.3-2.19.56-1,1.12-2.11,1.73-3.29.79-1.54,1.5-3.17,2.19-4.92.19-.47.38-1,.56-1.46a66.29,66.29,0,0,0,2.34-8,115,115,0,0,0,2.48-16.1c.32-3.74.48-7.51.54-11.28,0-1.73,0-3.48,0-5.23,0-5.46-.2-11.07-.68-16.53A90.07,90.07,0,0,0,35.67,30.2Z"/><path class="cls-11" d="M29.7,30.56a43.67,43.67,0,0,0-3.26-9.45c-.21-.43-.41-.86-.62-1.28A42.32,42.32,0,0,0,23.64,16c-.11-.16-.21-.31-.3-.47-.5-.83-1-1.53-1.42-2.16a7.81,7.81,0,0,0-.72-1.07c-.17-.61-.34-.73-.5-.7l-.12.22q-4.41,8-8.81,16v76.53q4.5,8.18,9,16.36l.21.39c.13,0,.25-.12.38-.82a11.3,11.3,0,0,0,.59-1.3c.28-.65.61-1.36,1-2.18.27-.66.57-1.35.89-2.08s.66-1.53,1-2.37c.41-1.1.83-2.25,1.29-3.47.59-1.61,1.12-3.29,1.64-5.08.14-.48.29-1,.42-1.48.7-2.54,1.28-5.25,1.76-8a148.59,148.59,0,0,0,1.86-15.78c.24-3.64.36-7.31.41-11,0-1.68,0-3.38,0-5.08,0-5.32-.15-10.78-.52-16.11A110.78,110.78,0,0,0,29.7,30.56Z"/><path class="cls-12" d="M23.72,30.93a59.36,59.36,0,0,0-2.17-9.19c-.14-.44-.27-.88-.41-1.3-.5-1.51-1-2.84-1.46-4.05l-.2-.5c-.33-.92-.68-1.69-.94-2.36a10.72,10.72,0,0,0-.48-1.18c-.12-.68-.23-.82-.34-.78l-.08.24c-2,5.93-4.88,11.61-5.87,17.77a231.52,231.52,0,0,0,0,73c1,6.29,4,12.1,6,18.14l.14.44c.08,0,.07-.15.25-.91.09-.37.24-.85.39-1.44s.41-1.49.64-2.4c.19-.71.38-1.47.6-2.27s.44-1.64.65-2.54c.27-1.17.56-2.38.86-3.66.4-1.67.75-3.4,1.09-5.23.1-.49.19-1,.29-1.49.46-2.58.85-5.27,1.17-8,.59-5,1-10.27,1.24-15.45.16-3.55.24-7.13.27-10.69,0-1.64,0-3.29,0-4.94,0-5.18-.1-10.48-.34-15.68A153.68,153.68,0,0,0,23.72,30.93Z"/><path class="cls-13" d="M17.75,31.29c-.25-3.17-.65-6.15-1.09-8.92-.07-.45-.14-.89-.2-1.32-.26-1.56-.49-3-.73-4.25,0-.18-.07-.36-.1-.53-.17-1-.34-1.85-.47-2.56l-.25-1.29c-.12-.74-.11-.9-.16-.86l0,.27c-1,6.51-2.45,13-2.94,19.53a466.81,466.81,0,0,0,0,69.36c.5,6.7,2,13.29,3,19.93l.07.48c0,.05,0-.15.12-1,0-.4.12-.94.2-1.59s.2-1.62.32-2.61c.09-.77.19-1.59.3-2.45s.22-1.76.32-2.72c.14-1.24.28-2.52.43-3.84.2-1.74.38-3.53.55-5.39.05-.5.09-1,.14-1.51.23-2.61.43-5.28.59-8,.29-5,.5-10.06.62-15.13q.12-5.19.13-10.4c0-1.58,0-3.18,0-4.79,0-5-.05-10.18-.17-15.25S18.12,36.13,17.75,31.29Z"/><path class="cls-14" d="M11.77,11.55v0Z"/><text class="cls-15" transform="translate(104.92 65.37)">DESIGN-<tspan x="0" y="24">AI</tspan><tspan class="cls-16"><tspan x="0" y="48">LAB</tspan></tspan></text></g></g></svg>