<svg width="542" height="591" viewBox="0 0 542 591" fill="none" xmlns="http://www.w3.org/2000/svg">
<circle cx="279.639" cy="292.444" r="231.5" transform="rotate(5.86523 279.639 292.444)" fill="#292929" stroke="#FEFEFE" stroke-width="2"/>
<path d="M461.6 294.5C461.6 395.071 380.071 476.6 279.5 476.6C178.929 476.6 97.4 395.071 97.4 294.5C97.4 193.929 178.929 112.4 279.5 112.4C380.071 112.4 461.6 193.929 461.6 294.5Z" fill="#1F1F1F" stroke="#FEFEFE" stroke-width="0.8"/>
<path d="M336.865 171.568L322.335 172.65L328.663 159.525L336.865 171.568Z" fill="white"/>
<path d="M366.334 398.17L371.51 384.55L380.718 395.842L366.334 398.17Z" fill="white"/>
<path d="M144.44 300.05L152.836 311.958L138.326 313.275L144.44 300.05Z" fill="white"/>
<path d="M300.158 18.1V19.972H309.878V18.1H300.158ZM299.114 13.996V20.638H301.238V15.868H308.87V20.584H311.084V13.996H299.114ZM297.116 5.338V7.066H304.154V5.338H297.116ZM305.774 7.498V9.406H313.154V7.498H305.774ZM296.81 8.758L297.026 10.594C299.006 10.36 301.688 10.018 304.262 9.712L304.226 8.002C301.508 8.29 298.682 8.596 296.81 8.758ZM308.726 8.326V13.51H310.85V8.326H308.726ZM299.78 3.7V11.692C299.78 11.908 299.708 11.962 299.474 11.98C299.258 11.98 298.52 11.98 297.89 11.944C298.124 12.448 298.376 13.168 298.466 13.69C299.618 13.69 300.464 13.672 301.076 13.402C301.724 13.132 301.886 12.664 301.886 11.728V3.7H299.78ZM304.946 4.384V7.138C304.946 8.704 304.676 10.576 302.732 12.016C303.218 12.304 303.938 13.06 304.208 13.546C306.566 11.782 306.998 9.064 306.998 7.246V5.356C307.304 5.284 307.448 5.194 307.466 5.014L304.946 4.384ZM311.21 3.718C309.806 4.204 307.52 4.636 305.504 4.87C305.72 5.284 306.008 6.004 306.08 6.436C308.222 6.256 310.76 5.878 312.65 5.266L311.21 3.718ZM300.194 31.874V33.728H308.492V31.874H300.194ZM296.972 35.906V37.904H313.082V35.906H296.972ZM303.902 34.754V40.244C303.902 40.496 303.794 40.586 303.434 40.586C303.074 40.586 301.724 40.586 300.572 40.55C300.914 41.108 301.31 42.026 301.454 42.638C302.984 42.638 304.136 42.602 304.982 42.314C305.846 41.99 306.116 41.432 306.116 40.316V34.754H303.902ZM307.79 31.874V32.27C307.124 33.152 305.594 34.43 304.208 35.15C304.532 35.438 305.108 36.032 305.36 36.392C307.124 35.546 308.906 34.142 310.148 32.81L308.78 31.766L308.33 31.874H307.79ZM297.188 28.58V32.99H299.222V30.488H310.742V32.99H312.884V28.58H297.188ZM309.662 25.844C309.23 26.852 308.42 28.202 307.736 29.084L309.5 29.732C310.238 28.94 311.174 27.716 312.002 26.528L309.662 25.844ZM298.394 26.726C299.006 27.482 299.672 28.508 299.924 29.174L301.886 28.274C301.598 27.572 300.878 26.6 300.23 25.898L298.394 26.726ZM302.93 26.33C303.47 27.158 304.028 28.292 304.208 29.012L306.26 28.22C306.026 27.5 305.414 26.402 304.838 25.61L302.93 26.33Z" fill="white"/>
<path d="M527.364 448.357L514.41 440.386L513.306 442.179L526.26 450.151L527.364 448.357ZM525.915 444.253L524.198 443.197L520.416 449.344L522.133 450.401L525.915 444.253ZM523.726 446.266C522.326 444.729 520.763 442.288 520.197 440.46C519.558 440.468 518.546 440.395 517.906 440.234C518.697 442.348 520.756 445.115 522.59 447.047L523.726 446.266ZM526.963 451.893C527.224 450.3 527.938 448.076 528.753 446.168C528.241 446.107 527.486 445.96 527.025 445.781C526.136 447.707 525.227 450.043 524.828 451.996L526.963 451.893ZM521.612 447.227L521.367 445.977C520.425 446.032 518.292 446.029 517.293 445.901L518.074 447.861C518.646 447.79 521.009 447.384 521.612 447.227ZM523.579 457.737L509.184 448.879L508.07 450.688L522.465 459.545L523.579 457.737ZM516.728 446.716L514.795 445.907L511.158 455.081L513.06 455.871L516.728 446.716ZM524.025 452.58C522.832 453.008 521.228 453.416 520.305 453.44L520.662 455.435C521.614 455.365 523.185 454.873 524.332 454.417L524.025 452.58ZM520.343 449.532C519.121 450.006 517.449 450.456 516.472 450.532L516.879 452.515C517.874 452.409 519.508 451.85 520.683 451.348L520.343 449.532ZM504.347 435.23L502.768 434.258L498.42 441.325L499.999 442.297L504.347 435.23ZM502.602 430.372L500.9 429.325L492.457 443.046L494.159 444.093L502.602 430.372ZM499.951 436.878L495.276 434.001C495.061 433.869 495.041 433.73 495.23 433.423C495.418 433.117 496.126 431.967 496.76 431.005C496.106 431.003 495.116 430.86 494.52 430.661C493.718 431.965 493.145 432.965 492.947 433.836C492.77 434.742 493.103 435.264 494.054 435.849L498.791 438.764L499.951 436.878ZM500.366 441.699L500.029 441.491C499.627 440.462 499.34 438.489 499.454 436.931C499.039 437.056 498.231 437.236 497.792 437.261C497.588 439.207 497.85 441.461 498.334 443.217L499.94 442.599L500.083 442.159L500.366 441.699ZM508.728 434.396L504.972 432.085L503.906 433.817L506.037 435.128L500 444.939L497.869 443.628L496.746 445.452L500.502 447.764L508.728 434.396ZM504.521 446.453C503.889 445.557 503.164 444.16 502.771 443.115L501.295 444.278C501.582 445.321 502.134 446.76 502.712 448.088L504.521 446.453ZM509.675 436.394C508.71 436.519 507.488 436.549 506.788 436.415L506.527 438.557C507.275 438.68 508.481 438.576 509.418 438.392L509.675 436.394ZM507.635 440.465C506.647 440.491 505.389 440.372 504.681 440.148L504.28 442.311C505.016 442.489 506.272 442.543 507.248 442.467L507.635 440.465Z" fill="white"/>
<path d="M21.3305 412.91L20.1996 411.027L19.0578 411.713L16.9349 408.18L18.0767 407.494L16.9365 405.596L15.7947 406.282L13.8665 403.073L12.1076 404.13L14.0358 407.339L12.5237 408.247L13.6639 410.145L15.176 409.237L17.2989 412.77L15.7868 413.678L16.9177 415.561L18.4298 414.652L20.3858 417.908L22.1448 416.851L20.1888 413.596L21.3305 412.91ZM28.0377 406.423C28.5661 407.302 28.7054 407.954 28.258 408.223C27.718 408.547 26.6529 408.452 18.2253 403.058C18.0462 402.934 17.8795 402.867 17.7467 402.82L17.5472 404.725L17.8314 405.058L23.2915 414.146L24.9887 413.127L21.6237 407.526C27.4724 410.899 28.5805 410.612 29.5679 410.018C30.9319 409.178 31.1377 407.563 29.7287 405.218L26.3729 399.633C25.1307 397.565 24.087 397.121 21.1244 398.586C21.3594 399.222 21.5296 399.96 21.5362 400.67C23.5421 399.569 24.0145 399.727 24.4873 400.513L28.0377 406.423ZM32.5374 393.598C32.2725 394.555 32.0698 396.315 31.9285 397.513L33.8706 398.194C34.0397 396.937 34.3566 395.193 34.64 394.267L32.5374 393.598ZM35.1502 390.537L33.345 391.622L36.7286 397.254L32.9638 399.515L34.1782 401.537L37.943 399.275L41.41 405.045L43.2153 403.961L40.0634 398.715C43.1225 398.599 46.6484 399.504 49.2394 401.16C49.3563 400.481 49.7415 399.41 50.0251 398.798C47.7894 397.559 45.0539 396.85 42.2632 396.679L48.5738 392.888L47.3594 390.866L40.3699 395.066C41.6278 392.441 42.5553 389.511 42.8007 387.054C42.0876 387.02 40.933 386.811 40.2599 386.564C40.2152 389.321 39.3622 392.794 38.0703 395.397L35.1502 390.537Z" fill="white"/>
<circle cx="279.5" cy="292.5" r="119" fill="black" stroke="#FEFEFE" stroke-dasharray="6 6"/>
<circle cx="182.5" cy="212.5" r="36" fill="black" stroke="#FEFEFE"/>
<path d="M230.114 315.66L24 434.66" stroke="white" stroke-opacity="0.64"/>
<line x1="24.4332" y1="434.41" x2="19.4332" y2="425.75" stroke="#A3A3A3"/>
<line x1="40.8873" y1="424.91" x2="35.8873" y2="416.25" stroke="#A3A3A3"/>
<line x1="59.0738" y1="414.41" x2="54.0738" y2="405.75" stroke="#A3A3A3"/>
<line x1="77.2603" y1="403.91" x2="72.2603" y2="395.25" stroke="#A3A3A3"/>
<line x1="95.4469" y1="393.41" x2="90.4469" y2="384.75" stroke="#A3A3A3"/>
<line x1="113.633" y1="382.91" x2="108.633" y2="374.25" stroke="#A3A3A3"/>
<line x1="131.82" y1="372.41" x2="126.82" y2="363.75" stroke="#A3A3A3"/>
<line x1="150.006" y1="361.91" x2="145.006" y2="353.25" stroke="#A3A3A3"/>
<line x1="168.193" y1="351.41" x2="163.193" y2="342.75" stroke="#A3A3A3"/>
<line x1="186.379" y1="340.91" x2="181.379" y2="332.25" stroke="#A3A3A3"/>
<line x1="204.566" y1="330.41" x2="199.566" y2="321.75" stroke="#A3A3A3"/>
<line x1="222.753" y1="319.91" x2="217.753" y2="311.25" stroke="#A3A3A3"/>
<path d="M331 315L537.114 434" stroke="white" stroke-opacity="0.64"/>
<line x1="536.681" y1="433.75" x2="531.681" y2="442.41" stroke="#A3A3A3"/>
<line x1="520.227" y1="424.25" x2="515.227" y2="432.91" stroke="#A3A3A3"/>
<line x1="502.04" y1="413.75" x2="497.04" y2="422.41" stroke="#A3A3A3"/>
<line x1="483.854" y1="403.25" x2="478.854" y2="411.91" stroke="#A3A3A3"/>
<line x1="465.667" y1="392.75" x2="460.667" y2="401.41" stroke="#A3A3A3"/>
<line x1="447.481" y1="382.25" x2="442.481" y2="390.91" stroke="#A3A3A3"/>
<line x1="429.294" y1="371.75" x2="424.294" y2="380.41" stroke="#A3A3A3"/>
<line x1="411.108" y1="361.25" x2="406.108" y2="369.91" stroke="#A3A3A3"/>
<line x1="392.921" y1="350.75" x2="387.921" y2="359.41" stroke="#A3A3A3"/>
<line x1="374.735" y1="340.25" x2="369.735" y2="348.91" stroke="#A3A3A3"/>
<line x1="356.548" y1="329.75" x2="351.548" y2="338.41" stroke="#A3A3A3"/>
<line x1="338.362" y1="319.25" x2="333.362" y2="327.91" stroke="#A3A3A3"/>
<path d="M172.83 192.186C172.524 192.888 171.984 193.878 171.552 194.526L172.632 195.012C173.118 194.454 173.694 193.59 174.234 192.78L172.83 192.186ZM168.834 194.562C168.672 193.914 168.186 192.978 167.718 192.294L166.494 192.798C166.962 193.518 167.412 194.49 167.556 195.12L168.834 194.562ZM169.5 199.764H171.03V197.532C171.822 198.126 172.74 198.864 173.172 199.278L174.072 198.09C173.694 197.838 172.38 197.01 171.498 196.488H174.576V195.156H171.03V191.898H169.5V195.156H165.936V196.488H168.978C168.114 197.532 166.836 198.504 165.666 198.972C165.99 199.296 166.368 199.854 166.548 200.232C167.556 199.692 168.636 198.81 169.5 197.874V199.764ZM172.128 202.464C171.75 203.256 171.246 203.94 170.652 204.534C170.058 204.228 169.464 203.94 168.87 203.688C169.086 203.31 169.32 202.896 169.554 202.464H172.128ZM173.316 206.082C172.938 205.812 172.434 205.524 171.912 205.218C172.848 204.192 173.568 202.932 174.018 201.384L173.118 201.024L172.848 201.096H170.202C170.328 200.808 170.454 200.538 170.562 200.268L169.068 199.98C168.96 200.34 168.798 200.7 168.618 201.096H166.278V202.464H167.934C167.556 203.112 167.196 203.76 166.836 204.246C167.682 204.588 168.618 205.002 169.482 205.47C168.384 206.208 167.106 206.712 165.72 207.036C166.008 207.342 166.332 207.936 166.476 208.296C168.114 207.864 169.59 207.198 170.832 206.226C171.408 206.55 171.912 206.892 172.308 207.198L173.316 206.082ZM179.328 196.848C179.076 198.684 178.698 200.268 178.176 201.672C177.582 200.196 177.132 198.576 176.826 196.848H179.328ZM182.046 196.848V195.282H177.114C177.348 194.31 177.546 193.284 177.69 192.24L176.16 192.024C175.746 195.174 174.936 198.162 173.532 200.052C173.892 200.286 174.522 200.808 174.774 201.096C175.17 200.52 175.548 199.854 175.872 199.098C176.232 200.682 176.718 202.122 177.312 203.418C176.34 205.038 174.99 206.244 173.118 207.126C173.388 207.45 173.856 208.152 174 208.494C175.764 207.576 177.096 206.406 178.122 204.948C178.986 206.316 180.048 207.468 181.362 208.26C181.614 207.864 182.082 207.252 182.46 206.964C181.038 206.172 179.904 204.966 179.022 203.436C179.94 201.636 180.498 199.458 180.876 196.848H182.046ZM188.454 191.88C187.392 194.544 185.61 197.154 183.738 198.792C184.08 199.17 184.62 200.052 184.836 200.466C185.43 199.872 186.024 199.206 186.6 198.468V208.422H188.346V195.912C189.03 194.778 189.642 193.608 190.128 192.402L188.454 191.88ZM194.916 206.442C194.124 206.442 193.98 206.244 193.98 205.236V201.438C196.212 199.8 198.336 197.748 199.974 195.444L198.372 194.382C197.22 196.182 195.654 197.82 193.98 199.224V192.204H192.18V200.61C190.992 201.438 189.786 202.14 188.652 202.68C189.066 203.022 189.624 203.598 189.876 203.958C190.65 203.58 191.406 203.148 192.18 202.644V205.2C192.18 207.468 192.738 208.098 194.7 208.098H197.634C199.632 208.098 200.082 206.874 200.298 203.472C199.812 203.364 199.074 203.022 198.642 202.68C198.516 205.686 198.372 206.442 197.508 206.442H194.916ZM167.394 233.792C167.988 232.874 168.618 231.47 169.086 230.462L167.628 229.922C167.214 230.93 166.512 232.28 165.846 233.162L167.394 233.792ZM174.954 222.02H169.392V223.19H174.954V222.02ZM173.37 226.916H170.886V225.278H173.37V226.916ZM174.684 227.942C175.026 228.212 175.512 228.716 175.728 228.968C176.34 228.572 176.934 228.104 177.51 227.6C178.212 228.608 179.112 229.166 180.21 229.166C181.524 229.166 182.028 228.518 182.262 226.142C181.848 226.034 181.29 225.746 180.948 225.44C180.858 227.024 180.696 227.654 180.282 227.654C179.67 227.654 179.112 227.222 178.608 226.43C179.67 225.188 180.552 223.73 181.182 222.074L179.67 221.696C179.256 222.884 178.644 223.964 177.906 224.918C177.528 223.874 177.222 222.524 177.042 221.012H182.01V219.662H180.12L180.678 219.212C180.228 218.78 179.328 218.222 178.608 217.862L177.636 218.582C178.158 218.888 178.752 219.284 179.22 219.662H176.934C176.898 219.104 176.88 218.51 176.88 217.916H175.314C175.332 218.51 175.35 219.104 175.386 219.662H167.268V222.326C167.268 224.126 167.088 226.646 165.774 228.482C166.116 228.644 166.764 229.202 166.998 229.49C168.51 227.474 168.798 224.45 168.798 222.344V221.012H175.494C175.728 223.046 176.142 224.846 176.736 226.232C176.124 226.826 175.422 227.348 174.684 227.78V224.108H169.536V228.086H174.684V227.942ZM172.452 229.346C173.262 230.156 174.27 231.29 174.738 232.028L176.142 231.29C175.638 230.606 174.576 229.472 173.784 228.716L172.452 229.346ZM172.668 232.892C171.57 232.892 171.372 232.82 171.372 232.334V229.544H169.698V232.37C169.698 233.828 170.292 234.224 172.542 234.224H176.304C178.212 234.224 178.716 233.684 178.932 231.38C178.464 231.29 177.762 231.074 177.384 230.822C177.276 232.64 177.15 232.892 176.196 232.892H172.668ZM178.554 230.048C179.274 231.128 180.084 232.604 180.408 233.504L182.01 232.946C181.614 232.028 180.768 230.624 180.048 229.58L178.554 230.048ZM192.234 226.61V225.026H189.048C189.048 224.846 189.048 224.666 189.048 224.504V221.804H191.73V220.238H186.816C186.996 219.59 187.158 218.906 187.302 218.222L185.7 217.916C185.286 220.022 184.584 222.128 183.558 223.442C183.954 223.676 184.62 224.126 184.926 224.414C185.412 223.694 185.88 222.794 186.258 221.804H187.356V224.486V225.026H183.828V226.61H187.248C186.978 228.86 186.15 231.308 183.612 233.108C183.954 233.36 184.566 234.026 184.8 234.386C186.708 233 187.77 231.2 188.364 229.346C189.318 230.444 190.524 231.992 191.118 232.892L192.27 231.452C191.748 230.858 189.678 228.518 188.778 227.636C188.85 227.294 188.886 226.952 188.94 226.61H192.234ZM194.376 230.984V221.03H197.652V230.984H194.376ZM192.756 219.446V233.9H194.376V232.55H197.652V233.702H199.344V219.446H192.756Z" fill="white"/>
<circle cx="383.5" cy="216.5" r="36" fill="black" stroke="#FEFEFE"/>
<circle cx="280.5" cy="419.5" r="36" fill="black" stroke="#FEFEFE"/>
<path d="M371.04 200.866H372.75V199.336H377.214V200.866H378.942V199.336H382.794V197.734H378.942V195.898H377.214V197.734H372.75V195.898H371.04V197.734H367.08V199.336H371.04V200.866ZM372.48 210.316C371.454 210.316 370.788 210.082 370.788 209.542C370.788 208.912 371.418 207.976 380.292 203.116C380.454 203.062 380.598 202.954 380.67 202.882L379.482 202L379.122 202.054H368.79V203.602H376.116C369.402 207.526 369.078 208.606 369.078 209.704C369.078 211.072 370.212 211.936 372.642 211.936H379.716C381.84 211.936 382.596 211.342 382.83 208.246C382.326 208.156 381.714 207.958 381.264 207.688C381.174 209.956 380.832 210.316 379.878 210.316H372.48ZM399.264 198.688C398.58 197.968 397.158 196.888 396.132 196.15L394.89 197.176C395.952 197.968 397.32 199.102 397.968 199.858L399.264 198.688ZM400.668 202V200.362H393.954V195.916H392.118V200.362H385.242V202H391.668C390.12 204.862 387.384 207.616 384.63 209.02C385.044 209.38 385.602 210.046 385.908 210.46C388.23 209.128 390.444 206.896 392.118 204.34V212.422H393.954V203.674C395.664 206.266 397.932 208.804 400.002 210.334C400.326 209.866 400.92 209.2 401.352 208.84C398.976 207.364 396.258 204.592 394.656 202H400.668ZM371.166 227.046C370.986 229.26 370.626 231.15 370.068 232.68C369.654 232.302 369.24 231.978 368.826 231.654C369.15 230.286 369.456 228.684 369.744 227.046H371.166ZM372.876 235.56C372.498 235.038 371.958 234.426 371.31 233.796C372.12 231.744 372.588 229.08 372.75 225.606L371.796 225.48L371.526 225.516H369.996C370.176 224.292 370.32 223.104 370.428 222.006L368.952 221.934C368.862 223.05 368.7 224.256 368.52 225.516H366.972V227.046H368.268C367.926 228.99 367.53 230.844 367.134 232.212C367.872 232.77 368.682 233.454 369.42 234.138C368.7 235.506 367.764 236.46 366.63 237.09C366.972 237.396 367.386 238.008 367.62 238.404C368.826 237.648 369.816 236.64 370.59 235.326C371.04 235.83 371.454 236.334 371.724 236.748L372.876 235.56ZM376.062 227.802H379.86V229.134H376.062V227.802ZM379.86 225.21V226.542H376.062V225.21H379.86ZM382.974 233.31V231.888H378.87V230.502H381.444V225.21H382.956V223.788H381.444V221.898H379.86V223.788H376.062V221.898H374.55V223.788H373.11V225.21H374.55V230.502H377.25V231.888H373.038V233.31H376.368C375.396 234.714 373.902 236.028 372.39 236.712C372.75 237.018 373.254 237.612 373.524 238.026C374.892 237.252 376.242 235.956 377.25 234.498V238.404H378.87V234.516C379.86 235.866 381.12 237.162 382.29 237.936C382.578 237.486 383.1 236.91 383.478 236.604C382.11 235.92 380.616 234.642 379.626 233.31H382.974ZM388.878 231.222C388.878 233.184 388.518 235.488 385.278 237.198C385.728 237.486 386.376 238.062 386.664 238.458C390.228 236.478 390.624 233.634 390.624 231.258V229.08H388.878V231.222ZM395.556 238.458H397.32V229.062H395.556V238.458ZM392.946 221.736C391.308 224.454 387.906 227.046 384.522 228.126C384.918 228.54 385.332 229.242 385.548 229.728C388.302 228.63 391.074 226.65 393 224.418C394.854 226.65 397.536 228.54 400.398 229.476C400.65 229.008 401.19 228.288 401.586 227.91C398.58 227.1 395.592 225.228 393.99 223.14C394.098 222.996 394.206 222.852 394.296 222.69L392.946 221.736Z" fill="white"/>
<path d="M273.224 401.076H276.068V403.524C276.068 405.072 276.374 405.666 277.814 405.666H279.074C279.452 405.666 279.848 405.648 280.082 405.558C280.028 405.18 279.974 404.586 279.938 404.154C279.722 404.226 279.308 404.262 279.056 404.262H277.958C277.688 404.262 277.652 404.082 277.652 403.578V399.528H271.676V401.472C271.676 402.75 271.316 404.154 269.012 405.18C269.336 405.414 269.912 406.08 270.11 406.404C272.684 405.216 273.224 403.254 273.224 401.526V401.076ZM268.976 401.868C268.4 401.13 267.158 399.978 266.186 399.186L265.106 400.212C266.078 401.058 267.302 402.264 267.842 403.038L268.976 401.868ZM267.77 411.768V404.442H263.828V406.044H266.168V412.038C266.168 412.848 265.628 413.442 265.268 413.712C265.574 414.018 265.988 414.72 266.15 415.116C266.438 414.738 266.96 414.306 270.182 411.768C269.984 411.444 269.714 410.814 269.57 410.382L267.77 411.768ZM277.112 408.276C276.5 409.536 275.654 410.562 274.628 411.408C273.548 410.526 272.684 409.482 272.072 408.276H277.112ZM278.192 406.656L277.922 406.71H269.912V408.276H270.992L270.524 408.438C271.226 409.95 272.144 411.264 273.278 412.326C272 413.118 270.506 413.64 268.94 413.964C269.246 414.324 269.606 414.972 269.732 415.422C271.496 414.972 273.134 414.324 274.574 413.37C275.906 414.324 277.472 415.026 279.29 415.476C279.506 415.008 279.956 414.324 280.316 413.982C278.66 413.658 277.202 413.1 275.942 412.326C277.4 411.03 278.552 409.32 279.236 407.106L278.192 406.656ZM287.372 401.814C286.76 401.058 285.446 399.942 284.438 399.15L283.376 400.23C284.366 401.076 285.644 402.282 286.238 403.038L287.372 401.814ZM286.292 411.768V404.442H281.864V406.098H284.582V412.056C284.582 412.848 284.042 413.406 283.664 413.622C283.97 414 284.384 414.738 284.528 415.188C284.834 414.792 285.392 414.36 288.848 411.858C288.704 411.534 288.434 410.832 288.326 410.346L286.292 411.768ZM298.244 404.694H293.888V398.97H292.106V404.694H287.678V406.422H292.106V415.422H293.888V406.422H298.244V404.694ZM265.214 429.128C265.592 428.714 265.952 428.228 266.258 427.652H267.518V428.57C267.518 428.75 267.518 428.93 267.5 429.128H265.214ZM271.982 432.494C271.496 432.152 269.516 430.982 268.778 430.622L268.832 430.46H272.036V429.128H269.084C269.102 428.948 269.102 428.768 269.102 428.588V427.652H271.586V426.32H266.924C267.068 425.924 267.212 425.546 267.338 425.132L265.844 424.826C265.466 426.158 264.764 427.472 263.864 428.372C264.206 428.516 264.818 428.912 265.142 429.128H263.918V430.46H267.176C266.762 431.468 265.826 432.512 263.738 433.322C264.116 433.592 264.584 434.114 264.8 434.438C266.564 433.646 267.626 432.692 268.256 431.72C269.12 432.314 270.29 433.16 270.812 433.592L271.982 432.494ZM275.996 435.32V436.724H268.076V435.32H275.996ZM268.076 439.424V437.984H275.996V439.424H268.076ZM266.42 441.404H268.076V440.774H275.996V441.386H277.706V433.988H266.42V441.404ZM277.562 431.252H274.286V427.778H277.562V431.252ZM272.72 426.302V432.728H279.218V426.302H272.72ZM291.548 428.48V430.424H286.562V431.846H298.028V430.424H293.204V428.48H297.272V427.04H293.204V424.898H291.548V427.04H289.694C289.91 426.536 290.09 425.978 290.252 425.456L288.686 425.114C288.254 426.716 287.444 428.336 286.454 429.398C286.832 429.578 287.552 429.938 287.858 430.19C288.272 429.722 288.65 429.128 289.01 428.48H291.548ZM289.478 434.528H295.058V436.886H289.478V434.528ZM296.696 438.236V433.16H287.93V438.236H296.696ZM286.148 428.354C285.59 427.544 284.402 426.392 283.412 425.564L282.17 426.464C283.16 427.328 284.33 428.552 284.834 429.362L286.148 428.354ZM285.716 431.756H281.9V433.304H284.114V438.29C283.394 438.614 282.602 439.19 281.882 439.892L282.89 441.35C283.718 440.36 284.6 439.442 285.194 439.442C285.518 439.442 286.058 439.928 286.706 440.306C287.84 440.954 289.298 441.116 291.422 441.116C293.312 441.116 296.408 441.026 297.992 440.918C298.01 440.486 298.262 439.694 298.46 439.244C296.552 439.496 293.492 439.64 291.476 439.64C289.55 439.64 288.02 439.55 286.922 438.92C286.382 438.596 286.04 438.29 285.716 438.128V431.756Z" fill="white"/>
<rect x="163.066" y="403.805" width="82" height="29.1667" transform="rotate(-116.505 163.066 403.805)" fill="#1F1F1F"/>
<path d="M168.498 377.682L167.703 378.391L171.04 382.128C170.779 382.623 170.411 383.495 170.179 384.204L171.1 384.83C171.313 384.258 171.618 383.563 171.88 383.068L175.846 387.51L178.889 384.793C180.467 383.384 182.741 381.494 185.089 380.926C185.007 380.677 184.893 380.075 184.918 379.811C182.442 380.393 179.828 382.466 178.15 383.965L175.901 385.973L168.498 377.682ZM176.177 376.958C175.286 378.055 174.101 379.858 173.243 381.307L174.114 381.877C174.993 380.429 176.211 378.617 177.1 377.542L176.177 376.958ZM178.632 378.627C177.813 379.781 176.737 381.707 175.968 383.278L176.899 383.734C177.686 382.207 178.795 380.251 179.635 379.119L178.632 378.627ZM177.745 374.593C175.113 375.113 172.348 376.094 170.023 377.205L170.489 378.357C172.792 377.085 175.822 375.908 178.504 375.443L182.451 379.863L183.245 379.153L175.842 370.863L175.048 371.572L177.745 374.593Z" fill="white"/>
<path d="M167.029 366.847L164.978 368.258L162.691 364.934L164.742 363.523L167.029 366.847ZM169.725 370.764C169.242 371.041 168.776 371.344 168.369 371.624L167.639 372.126L165.607 369.173L167.658 367.761L169.725 370.764ZM162.765 371.128L164.742 369.768L166.775 372.721L164.797 374.082L162.765 371.128ZM161.826 365.529L164.113 368.853L162.136 370.214L159.849 366.89L161.826 365.529ZM158.35 366.592L164.541 375.587L168.989 372.526C170.707 371.344 172.967 369.971 175.434 370.276C175.41 370.002 175.463 369.419 175.555 369.155C173.859 368.939 172.161 369.488 170.662 370.247L168.536 367.157L172.181 364.649L171.552 363.735L167.907 366.243L165.619 362.919L168.128 361.193C168.363 361.031 168.496 361.067 168.679 361.305C168.832 361.528 169.422 362.36 169.98 363.25C170.142 362.956 170.436 362.536 170.657 362.329C169.871 361.159 169.365 360.451 168.928 360.132C168.495 359.848 168.112 359.874 167.519 360.282L158.35 366.592Z" fill="white"/>
<path d="M159.02 351.29L163.264 359.531L164.224 359.037L159.98 350.795L159.02 351.29ZM159.083 358.293C158.273 358.49 157.357 358.743 156.421 358.989L152.507 351.387L151.56 351.875L155.378 359.29C154.83 359.437 154.295 359.611 153.794 359.751L154.202 360.806C156.194 360.186 158.976 359.428 160.655 359.086L160.243 358.252L156.288 350.571C159.499 349.305 161.045 348.931 161.692 349.239C161.915 349.31 162.031 349.503 162.203 349.837C162.402 350.223 162.931 351.25 163.373 352.338C163.537 352.001 163.874 351.642 164.154 351.464C163.74 350.496 163.259 349.529 162.985 349.063C162.67 348.516 162.398 348.217 161.88 348.063C160.997 347.758 159.285 348.167 155.292 349.751C155.145 349.793 154.791 349.958 154.791 349.958L159.083 358.293Z" fill="white"/>
<path d="M154.748 341.275L155.751 342.982L153.895 343.672L153.362 342.238L152.406 342.594L152.939 344.028L150.816 344.818L151.193 345.83L153.315 345.04L153.828 346.418C152.69 346.329 151.376 346.322 150.03 346.406L149.084 343.861L148.114 344.222L148.951 346.472C148.44 346.518 147.9 346.574 147.405 346.662L147.571 347.753C148.15 347.633 148.741 347.542 149.322 347.47L150.038 349.396L151.008 349.035L150.381 347.348C151.659 347.257 152.735 347.224 153.13 347.254C153.829 347.282 154.357 347.325 154.503 347.543C154.709 347.323 155.12 347.01 155.31 346.875C155.156 346.804 154.915 346.414 154.732 345.922L154.271 344.685L156.296 343.932C156.876 344.932 157.416 345.868 157.816 346.599L158.759 345.992L157.28 343.566L160.148 342.499L159.772 341.487L156.707 342.627L155.626 340.884L154.748 341.275ZM148.9 335.32L147.93 335.681L149.425 339.701C148.819 339.751 148.2 339.805 147.594 339.854L146.454 336.79L145.498 337.145L146.544 339.957C145.966 339.996 145.404 340.077 144.893 340.123L145.134 341.201C145.701 341.135 146.302 341.071 146.936 341.011L147.877 343.542L148.833 343.186L147.986 340.909C148.592 340.86 149.212 340.805 149.823 340.77L150.691 343.104L151.661 342.743L150.892 340.676C151.977 340.625 152.996 340.566 153.812 340.566L152.311 336.531C153.183 336.767 154.252 337.058 155.225 337.352C155.085 337.965 154.967 338.552 154.859 339.121L155.779 339.531C156.1 337.811 156.762 335.676 157.289 334.552L156.212 334.153C155.956 334.712 155.708 335.508 155.486 336.375C154.004 335.918 152.307 335.445 151.033 335.118L150.926 335.991L151.05 336.152L152.295 339.498C151.745 339.527 151.139 339.576 150.5 339.622L148.9 335.32Z" fill="white"/>
<path d="M142.012 330.902C144.455 331.27 146.965 332.254 148.715 333.477C148.897 333.203 149.381 332.705 149.584 332.518C148.907 332.061 148.12 331.66 147.278 331.287L155.705 329.314L155.442 328.189L145.32 330.559C144.285 330.216 143.187 329.934 142.098 329.757L142.012 330.902ZM152.846 323.158C153.011 323.859 152.884 324.043 152.081 324.231L148.751 325.011C146.955 323.459 144.858 322.071 142.692 321.176L142.241 322.406C144.039 323.048 145.796 324.1 147.363 325.336L141.317 326.751L141.584 327.89L148.492 326.273C149.353 327.057 150.149 327.888 150.82 328.717C150.974 328.388 151.272 327.948 151.45 327.722C150.957 327.129 150.402 326.535 149.806 325.965L152.318 325.377C153.94 324.998 154.282 324.486 153.94 323.026L153.338 320.455C152.979 318.922 151.969 318.819 149.218 319.309C149.221 319.647 149.093 320.155 148.942 320.498C151.452 320.034 152.104 319.989 152.286 320.763L152.846 323.158Z" fill="white"/>
<path d="M281 238V0" stroke="white" stroke-opacity="0.64"/>
<line x1="281" y1="0.5" x2="291" y2="0.5" stroke="#A3A3A3"/>
<line x1="281" y1="19.5" x2="291" y2="19.5" stroke="#A3A3A3"/>
<line x1="281" y1="40.5" x2="291" y2="40.5" stroke="#A3A3A3"/>
<line x1="281" y1="61.5" x2="291" y2="61.5" stroke="#A3A3A3"/>
<line x1="281" y1="82.5" x2="291" y2="82.5" stroke="#A3A3A3"/>
<line x1="281" y1="103.5" x2="291" y2="103.5" stroke="#A3A3A3"/>
<line x1="281" y1="124.5" x2="291" y2="124.5" stroke="#A3A3A3"/>
<line x1="281" y1="145.5" x2="291" y2="145.5" stroke="#A3A3A3"/>
<line x1="281" y1="166.5" x2="291" y2="166.5" stroke="#A3A3A3"/>
<line x1="281" y1="187.5" x2="291" y2="187.5" stroke="#A3A3A3"/>
<line x1="281" y1="208.5" x2="291" y2="208.5" stroke="#A3A3A3"/>
<line x1="281" y1="229.5" x2="291" y2="229.5" stroke="#A3A3A3"/>
<rect x="435.901" y="326.361" width="82" height="28.6567" transform="rotate(120.085 435.901 326.361)" fill="#1F1F1F"/>
<path d="M412.789 332.558L413.859 332.791L415.192 326.68L415.411 327.787C416.057 327.713 417.035 327.451 417.811 327.205L417.627 326.075C416.87 326.309 415.839 326.529 415.211 326.592L416.608 320.188L415.539 319.954L414.675 323.911C411.369 323.021 407.7 321.822 406.654 317.679C406.388 317.913 405.934 318.166 405.602 318.278C406.467 321.353 408.645 322.98 411.122 324.011L409.984 329.229C406.741 328.26 405.395 327.675 405.11 327.152C405.013 326.962 405.026 326.765 405.099 326.428C405.182 326.047 405.421 325.025 405.735 324.003C405.398 324.145 404.926 324.195 404.597 324.154C404.31 325.12 404.087 326.069 404.005 326.589C403.924 327.17 403.953 327.529 404.243 327.961C404.69 328.657 406.208 329.296 410.266 330.472C410.421 330.537 410.784 330.631 410.784 330.631L412.142 324.403C412.897 324.675 413.661 324.903 414.413 325.113L412.789 332.558Z" fill="white"/>
<path d="M409.136 337.318C409.794 336.899 410.814 335.955 411.483 335.19L410.92 334.354C410.184 335.127 409.152 336.018 408.466 336.427L409.136 337.318ZM402.437 332.872C403.442 334.167 404.844 335.779 406.067 337.041L407.031 336.523C405.719 335.151 404.264 333.377 403.455 332.246L402.437 332.872ZM414.452 336.466C413.697 337.249 412.612 338.153 411.931 338.548L412.592 339.467C413.255 339.034 414.302 338.1 415.015 337.302L414.452 336.466ZM398.742 344.23C399.981 344.192 402.039 343.729 403.62 343.176L403.525 342.187C402.819 342.43 402.032 342.628 401.255 342.798L402.345 338.155C403.222 339.453 404.409 340.861 405.647 342.128L404.233 346.115L405.236 346.471L406.551 342.767L409.067 343.66L407.958 346.784L408.962 347.14L410.071 344.016L412.502 344.878L412.873 343.832L410.442 342.97L411.51 339.958L410.506 339.602L409.438 342.613L406.922 341.721L408.211 338.088L407.207 337.731L406.089 340.884C404.756 339.615 403.589 338.151 403.275 337.689C402.891 337.155 402.652 336.752 402.677 336.458C402.349 336.485 401.766 336.469 401.505 336.441C401.554 336.888 401.442 337.516 400.232 342.992C399.613 343.075 399.047 343.145 398.601 343.146L398.742 344.23Z" fill="white"/>
<path d="M397.646 355.972L401.829 347.699L400.865 347.212L396.683 355.484L397.646 355.972ZM403.28 351.811C403.915 352.351 404.657 352.944 405.405 353.558L401.547 361.188L402.498 361.669L406.261 354.226C406.702 354.583 407.157 354.914 407.565 355.238L408.179 354.288C406.508 353.04 404.262 351.232 402.999 350.072L402.566 350.895L398.668 358.606C395.758 356.748 394.548 355.716 394.417 355.011C394.345 354.79 394.433 354.582 394.602 354.247C394.798 353.859 395.319 352.829 395.941 351.832C395.572 351.897 395.082 351.835 394.774 351.713C394.234 352.616 393.733 353.573 393.516 354.068C393.259 354.644 393.176 355.039 393.355 355.55C393.626 356.443 394.963 357.59 398.588 359.894C398.709 359.988 399.05 360.177 399.05 360.177L403.28 351.811Z" fill="white"/>
<path d="M394.761 365.641C394.931 365.087 395.11 364.521 395.284 363.989L397.756 365.635L396.833 367.021L397.707 367.603L398.63 366.217L401.127 367.88L401.734 366.969L399.237 365.306L400.302 363.708L399.428 363.126L398.363 364.724L395.642 362.911C395.895 362.125 396.144 361.426 396.365 360.852L395.279 360.507L394.718 362.296L391.459 360.126C391.285 360.009 391.264 359.905 391.389 359.718C391.476 359.56 391.833 359.023 392.245 358.432C391.912 358.391 391.459 358.287 391.197 358.166C390.619 359.007 390.294 359.548 390.236 359.96C390.17 360.384 390.328 360.688 390.852 361.037L394.386 363.39C394.211 363.977 394.02 364.589 393.837 365.188L394.761 365.641ZM390.973 371.138C390.137 369.932 389.641 368.593 389.441 367.216C390.764 366.961 392.166 366.994 393.534 367.293L390.973 371.138ZM391.481 372.324L391.544 372.149L392.866 370.164L394.726 371.403L392.739 374.386L393.6 374.96L395.587 371.976L397.548 373.282L398.155 372.371L396.194 371.065L398.14 368.144L397.279 367.57L395.333 370.491L393.473 369.252L395.252 366.581L394.391 366.007L394.116 366.419L394.129 366.373C392.469 365.97 390.863 365.892 389.345 366.142C389.281 364.641 389.53 363.13 390.012 361.703C389.696 361.745 389.16 361.712 388.843 361.645C388.395 363.185 388.162 364.778 388.267 366.38C386.84 366.763 385.501 367.475 384.237 368.508C384.395 368.811 384.582 369.315 384.637 369.639C385.805 368.615 387.057 367.899 388.392 367.491C388.68 369.304 389.451 371.097 390.812 372.761L391.481 372.324Z" fill="white"/>
<path d="M384.163 386.101C384.998 386.03 386.476 385.722 387.53 385.444L387.55 384.39C386.452 384.65 384.95 384.917 384.112 384.946L384.163 386.101ZM381.467 385.434L382.295 386.15L386.046 381.819L388.881 384.273L389.667 383.366L386.832 380.911L390.681 376.466L389.853 375.75L386.21 379.956C385.169 377.309 384.872 373.917 385.487 371.374C385.15 371.419 384.576 371.418 384.233 371.379C383.772 373.698 383.998 376.553 384.802 379.154L379.325 374.411L378.539 375.318L384.357 380.356C381.661 379.986 378.603 380.056 376.429 380.574C376.528 380.918 376.603 381.519 376.575 381.872C378.843 381.177 382.264 380.984 384.924 381.442L381.467 385.434Z" fill="white"/>
<path d="M76.4139 286.283C77.3308 286.7 78.298 287.339 78.9105 288.088C79.1827 287.717 79.7505 287.105 80.0515 286.809C79.3333 286.032 78.1298 285.224 76.9907 284.676L76.4139 286.283ZM69.2088 281.274C69.8535 281.52 70.7347 281.933 71.3526 282.267L71.1411 284.38L70.9943 283.497C70.4498 283.515 69.5847 283.663 68.9453 283.907L69.2088 281.274ZM76.6257 279.285L74.8347 279.106L74.5389 282.061L73.1598 281.923L73.4843 278.681L71.729 278.505L71.5426 280.368C71.0143 280.044 70.3409 279.723 69.6889 279.368L69.2554 280.808L69.4812 278.552L67.7439 278.378L67.4607 281.208C66.8499 281.346 66.121 281.58 65.5209 281.791L65.7787 283.735C66.2265 283.599 66.7477 283.452 67.2474 283.339L66.9409 286.402L68.6782 286.576L68.9202 284.158L69.1314 285.662C69.7117 285.467 70.4837 285.345 71.0479 285.311L70.8722 287.067L72.6275 287.242L72.968 283.839L74.3471 283.977L74.0173 287.273L75.8084 287.452L76.1382 284.157L79.9173 284.535C80.1143 284.554 80.1627 284.614 80.143 284.811C80.1233 285.008 80.0677 285.563 79.996 286.098C80.5226 285.898 81.282 285.721 81.7907 285.699C81.8857 284.75 81.9395 284.032 81.7067 283.466C81.456 282.898 81.0225 282.71 80.1628 282.624L76.33 282.24L76.6257 279.285ZM72.6897 270.533L72.1394 276.032L69.3274 275.751C69.1807 273.963 68.9176 272.073 68.4932 270.529L66.7701 272.021C67.25 273.372 67.5883 275.595 67.7493 277.601L74.0359 278.23C75.7554 278.402 77.7739 278.658 79.4735 279.389C78.7804 279.627 77.6645 280.112 76.8048 280.569L77.4351 282.043C78.3092 281.624 79.4985 281.128 80.2615 280.915L79.5076 279.41C80.1165 279.652 80.6807 279.98 81.1481 280.371C81.4258 279.946 82.1727 279.171 82.5829 278.868C80.4982 277.104 76.8678 276.505 74.2349 276.242L74.1095 276.229L74.2852 274.474L83.0793 275.354L83.2872 273.276L74.4931 272.396L74.6598 270.731L72.6897 270.533Z" fill="white"/>
<path d="M69.8198 252.808L69.4608 254.81L76.9907 256.16C77.2211 256.201 77.2583 256.299 77.2316 256.55C77.2016 256.819 77.0492 257.67 76.8708 258.461C77.4291 258.305 78.2772 258.164 78.8423 258.174C79.0647 256.934 79.1735 256.021 79.0044 255.332C78.8239 254.605 78.3596 254.339 77.3851 254.164L69.8198 252.808ZM70.0439 256.249L69.6977 258.18L75.6862 259.254L76.0324 257.323L70.0439 256.249ZM71.9594 264.639L70.099 264.305L70.3659 262.817L72.2262 263.151L71.9594 264.639ZM82.5612 261.401L81.1438 261.147L82.0618 256.027L80.1483 255.683L79.2303 260.804L77.8129 260.55L77.5397 262.073L74.4391 261.517L74.7377 259.852L72.8774 259.518L72.5788 261.184L70.7185 260.85L70.944 259.592L69.1014 259.262L67.6592 267.306L69.5018 267.636L69.7528 266.236L71.6131 266.57L71.2541 268.572L73.1145 268.906L73.4353 267.116C74.2735 267.541 75.0192 268.278 75.4573 269.71C75.8075 269.388 76.7382 268.787 77.1757 268.591C76.5157 266.663 75.1963 265.658 73.7943 265.114L74.0865 263.484L77.4883 264.094L77.7265 262.765L78.8427 262.965L77.9215 268.103L79.835 268.446L80.7562 263.308L82.1736 263.563L80.9316 270.49L82.8805 270.839L85.7426 254.876L83.7937 254.527L82.5612 261.401Z" fill="white"/>
<path d="M71.6431 243.217C74.568 244.056 82.4562 245.765 84.3865 253.823C85.0388 253.25 85.8736 252.761 86.5265 252.541C85.349 248.363 82.6751 245.71 79.8606 243.951C83.12 243.724 87.0212 242.679 89.8781 239.296C89.3588 238.863 88.8171 238.088 88.4805 237.312C84.2095 242.688 77.3665 242.034 74.9518 241.663C73.9251 241.32 72.9938 241.039 72.267 240.831L71.6431 243.217Z" fill="white"/>
<path d="M85.8607 228.05C85.3174 228.242 83.0407 229.089 82.1988 229.482L81.1618 229.121L81.9307 226.911L80.0266 226.248L79.2577 228.459L75.7726 227.246L75.0983 229.184L78.5834 230.397L77.714 232.896L79.618 233.558L80.3988 231.314C82.2495 232.568 84.1956 234.369 85.1483 235.959C85.7707 235.813 86.7405 235.655 87.3836 235.669C86.6918 234.59 85.5114 233.436 84.1766 232.343L90.9598 234.702L91.6341 232.764L84.5618 230.304C85.4755 230.088 86.446 229.873 87.0847 229.79L85.8607 228.05ZM92.87 222.693C92.8404 222.778 92.7828 222.834 92.7029 222.845C92.6231 222.855 92.3792 222.789 91.9372 222.636L79.9178 218.454L77.8004 224.54L83.2745 226.445C85.8246 227.332 89.0687 228.689 90.532 231.714C90.9408 231.361 91.8818 230.792 92.3682 230.599C90.7719 227.3 86.8278 225.489 83.9717 224.495L80.4016 223.253L81.1409 221.128L91.2902 224.659C92.7523 225.168 93.2076 225.174 93.643 224.963C94.0495 224.781 94.3682 224.358 94.516 223.933L94.8413 222.998C94.9715 222.624 95.0284 222.186 94.902 221.837C94.7927 221.495 94.5288 221.212 94.0543 220.933C93.5967 220.659 92.4134 220.171 91.5183 219.841C91.1767 220.275 90.6755 220.729 90.1995 221.002C91.2025 221.351 92.0237 221.675 92.3918 221.822C92.72 221.974 92.8841 222.05 92.9454 222.148C92.9957 222.222 93.0001 222.319 92.9705 222.404L92.87 222.693Z" fill="white"/>
<path d="M92.0462 213.137C91.3352 212.607 90.5325 212.018 89.7134 211.422L91.7871 206.71C92.5179 207.149 93.3733 207.664 94.2214 208.194L92.0462 213.137ZM98.8062 208.501C96.2928 206.884 93.3069 204.999 91.0433 203.708L90.2022 205.127L90.1396 205.493L88.0587 210.222C87.3753 209.763 86.7249 209.32 86.0817 208.86L89.7505 200.523L87.8723 199.697L81.7166 213.684L83.5948 214.511L85.1391 211.002C87.6967 212.697 90.7755 214.996 92.7076 216.594L95.9269 209.279C96.6175 209.721 97.2752 210.148 97.9072 210.544L93.9048 219.638L95.816 220.479L102.407 205.503L100.496 204.662L98.8062 208.501Z" fill="white"/>
<path d="M92.2887 192.967L88.9695 199.173L90.6361 200.064L93.9554 193.858L92.2887 192.967ZM96.6937 190.036C95.6864 189.477 94.6473 188.901 93.5679 188.323L92.5662 190.196C93.6456 190.774 94.709 191.342 95.7005 191.893L94.7497 193.671L96.5591 194.639L97.476 192.924C99.9244 194.377 101.928 195.897 103.166 197.743C101.918 197.443 99.8957 197.178 98.3129 197.046L97.9191 198.775C98.6496 198.859 99.4595 198.986 100.269 199.113L99.4611 202.151C98.5032 200.965 97.3293 199.725 96.1584 198.67L97.8223 195.559L96.1081 194.642L92.3644 201.642L94.0786 202.559L95.1228 200.607C96.6185 201.856 97.9245 203.269 98.2903 203.73C98.7259 204.289 98.9721 204.707 98.9219 205.068C99.501 205.092 100.511 205.264 100.927 205.364C100.887 204.751 101.014 203.941 102.095 199.478C102.408 199.543 102.711 199.623 102.943 199.686L103.289 197.932C103.651 198.554 103.962 199.231 104.176 199.937C104.724 199.638 105.73 199.36 106.368 199.313C105.343 195.887 102.334 193.42 98.4692 191.067L99.3436 189.432C104.235 192.232 106.055 193.41 106.313 193.997C106.45 194.274 106.413 194.458 106.268 194.728C106.09 195.062 105.725 195.744 105.263 196.456C105.956 196.419 106.844 196.629 107.401 196.885C107.874 196.077 108.307 195.268 108.491 194.733C108.685 194.102 108.722 193.652 108.37 192.974C107.92 192.06 105.696 190.646 99.3845 187.066C99.1464 186.939 98.5359 186.592 98.5359 186.592L96.6937 190.036Z" fill="white"/>
<path d="M104.573 173.22L104.444 173.587L102.388 176.78C102.301 176.317 102.204 175.87 102.097 175.437L100.396 177.082C100.924 178.856 101.051 181.485 100.391 184.507C100.901 184.279 101.882 184.118 102.466 184.109C102.701 182.547 102.792 181.108 102.731 179.741L105.157 175.972C105.394 177.067 105.429 178.309 105.33 179.594C104.609 179.815 103.85 180.097 103.235 180.387L103.201 182.27C103.741 182.061 104.382 181.831 104.998 181.671C104.647 183.415 104.032 185.202 103.265 186.892C103.863 186.827 104.829 186.957 105.39 187.082C107.379 182.197 108.269 176.691 106.044 172.498L104.573 173.22ZM111.39 174.868L111.266 175.26L109.522 177.969C109.404 177.422 109.256 176.92 109.103 176.393L107.392 178.053C108.12 180.148 108.258 183.192 107.22 186.933C107.781 186.759 108.779 186.674 109.324 186.725C109.799 184.59 109.967 182.665 109.884 180.899L112.096 177.463C112.509 178.65 112.645 179.936 112.537 181.301C111.826 181.507 111.032 181.809 110.397 182.064L110.305 184.103C110.871 183.889 111.561 183.648 112.202 183.483C111.661 185.853 110.538 188.363 109.146 190.892C109.785 190.896 110.767 191.1 111.354 191.286C114.521 185.168 116.128 179.181 112.9 174.085L111.39 174.868Z" fill="white"/>
<path d="M115.195 171.404C114.741 169.501 114.058 167.513 113.244 165.698L111.414 166.411C111.778 167.094 112.108 167.819 112.414 168.548L111.575 169.832C111.026 168.173 110.22 166.318 109.289 164.776L107.418 165.752C108.715 167.526 109.789 169.833 109.995 170.486C110.228 171.16 110.345 171.632 110.188 171.988C110.759 172.128 111.715 172.447 112.096 172.6C112.159 172.309 112.334 171.899 113.148 170.529C113.474 171.499 113.703 172.328 113.769 172.717C113.948 173.554 114.053 174.13 113.867 174.554C114.385 174.676 115.298 174.962 115.667 175.129C115.721 174.582 116.009 173.875 118.023 169.822C117.668 169.575 117.033 169.071 116.647 168.687L115.195 171.404ZM118.602 177.605C119.303 175.877 120.241 173.629 121.106 171.506L119.567 170.586C118.539 172.834 117.489 175.201 116.742 176.691L118.602 177.605ZM121.004 167.858L122.331 166.109L123.622 167.088L122.294 168.838L121.004 167.858ZM118.073 162.877L116.745 164.627L115.498 163.68L116.825 161.931L118.073 162.877ZM120.797 164.945L119.47 166.694L118.265 165.78L119.593 164.031L120.797 164.945ZM126.592 163.174L124.819 165.511L123.528 164.532L124.932 162.682L123.398 161.518L121.994 163.367L120.79 162.453L122.171 160.632L120.651 159.479L119.27 161.3L118.022 160.353L119.654 158.203L118.12 157.038L116.053 159.763L116.37 158.332C115.684 158.105 114.537 157.889 113.605 157.837L113.108 159.743C113.943 159.834 114.96 160.041 115.661 160.279L114.257 162.129C113.808 161.291 113.33 160.521 112.83 159.781L111.131 161.067C112.443 162.763 113.865 165.356 114.354 167.421C114.929 167.497 115.961 167.715 116.5 167.898C116.423 167.523 116.332 167.137 116.229 166.766L123.6 172.359L124.818 170.753L123.886 170.045L128.184 164.381L126.592 163.174Z" fill="white"/>
<path d="M130.533 161.678C130.221 160.65 129.558 159.259 129.065 158.19L127.297 159.168C127.837 160.183 128.36 161.569 128.599 162.652L130.533 161.678ZM126.552 148.259L122.855 152.39L123.914 153.338L127.612 149.207L126.552 148.259ZM129.042 152.927L127.721 154.402L126.715 153.502L128.036 152.027L129.042 152.927ZM130.711 152.223C131.255 152.154 132.107 152.12 132.517 152.148C132.601 151.595 132.657 150.993 132.675 150.406C133.721 150.424 134.609 150.107 135.329 149.303C136.326 148.189 136.251 147.301 134.54 145.407C134.096 145.687 133.36 145.97 132.777 146.028C133.87 147.127 134.244 147.655 133.955 147.976C133.655 148.312 133.166 148.454 132.564 148.398C132.357 146.739 131.844 145.072 131.004 143.474L129.384 144.609C129.937 145.611 130.314 146.674 130.541 147.77C129.636 147.323 128.634 146.716 127.557 145.922L130.678 142.434L129.418 141.306L128.325 142.526L128.369 141.938C127.772 141.983 126.802 142.177 126.098 142.369L125.915 143.896C126.331 143.81 126.837 143.731 127.317 143.653L126.224 144.874C125.81 144.527 125.381 144.143 124.952 143.759L123.607 145.261C124.036 145.645 124.464 146.004 124.904 146.349L119.394 152.505L121.406 154.306C122.747 155.506 124.529 157.294 124.97 159.501C125.432 159.335 126.494 159.174 126.992 159.185C126.507 156.649 124.364 154.321 122.741 152.868L121.963 152.172L126.237 147.397C127.846 148.595 129.375 149.505 130.754 150.015C130.741 150.704 130.678 151.396 130.536 152.067L128.068 149.858L124.527 153.814L127.639 156.599L131.18 152.643L130.711 152.223ZM130.375 155.135C131.496 155.124 133 155.117 133.798 155.251L134.329 153.335C133.496 153.267 131.994 153.299 130.94 153.37L130.375 155.135ZM133.164 156.931C132.468 157.709 132.307 157.807 131.932 157.471L130.014 155.754L128.561 157.377L130.506 159.118C131.754 160.234 132.573 160.074 134.254 158.196L136.523 155.661C137.927 154.092 137.881 153.253 136.264 151.443C135.787 151.814 134.962 152.331 134.445 152.449C135.701 153.718 135.793 153.993 135.193 154.664L133.164 156.931ZM134.905 151.072C136.182 151.346 137.849 151.751 138.735 152.11L139.594 150.124C138.621 149.809 136.97 149.467 135.722 149.268L134.905 151.072Z" fill="white"/>
<path d="M142.532 139.083L141.137 137.627L139.006 139.669L138.707 139.358L137.026 137.603L138.858 135.847L137.489 134.417L134.057 137.705C133.764 137.138 133.445 136.597 133.1 136.055L131.332 137.176C132.491 138.906 133.429 140.874 133.624 142.482C134.162 142.341 135.196 142.198 135.731 142.184C135.595 141.392 135.321 140.507 134.946 139.595L135.466 139.097L137.135 140.839L137.446 141.164L135.042 143.468L136.436 144.923L138.737 142.719C139.973 144.426 140.932 146.624 140.401 149.451C140.95 149.374 142.107 149.437 142.626 149.562C143.002 147.457 142.598 145.501 141.82 143.804C143.216 143.986 144.891 144.251 145.968 144.516L145.762 142.22C144.987 142.14 142.027 141.86 140.716 141.845C140.593 141.639 140.445 141.432 140.297 141.225L142.532 139.083ZM147.043 140.096L140.53 133.298L142.414 131.493L148.927 138.29L147.043 140.096ZM137.64 133.275L147.839 143.92L149.334 142.488L148.437 141.552L150.322 139.746L151.032 140.487L152.604 138.98L142.592 128.53L137.64 133.275Z" fill="white"/>
<path d="M152.428 133.128C152.487 134.567 152.144 136.426 151.55 137.862C152.173 137.772 153.315 137.747 153.9 137.781C154.335 136.265 154.644 134.109 154.603 132.377L152.428 133.128ZM158.928 126.088C159.666 126.253 160.311 126.446 160.805 126.624L161.465 124.785C160.193 124.336 157.994 123.946 156.149 123.848L155.428 125.527C155.898 125.562 156.39 125.625 156.894 125.702L152.934 129.418C154.008 127.033 154.898 124.45 155.486 121.81L153.411 121.714C153.229 122.745 152.969 123.793 152.672 124.824L149.996 127.239C150.341 125.982 150.616 124.666 150.758 123.389C152.41 121.74 153.922 120.09 155.074 118.57L152.788 118.158C150.885 120.638 147.302 124.163 144 127.064C144.461 127.315 145.205 127.8 145.574 128.196C146.584 127.327 147.598 126.406 148.616 125.461C148.436 126.722 148.143 127.843 147.998 128.264C147.818 128.898 147.671 129.343 147.37 129.658C147.867 129.926 148.673 130.43 148.993 130.681C149.209 130.319 149.601 129.86 151.678 127.934C151.2 129.229 150.766 130.234 150.506 130.771C149.991 131.934 149.641 132.614 149.153 133.128C149.651 133.396 150.513 133.97 150.822 134.206C151.134 133.649 151.68 133.065 154.673 130.184L157.164 133.239C157.3 133.407 157.264 133.505 157.039 133.713C156.802 133.906 155.95 134.6 155.205 135.138C155.806 135.391 156.654 135.861 157.136 136.281C158.168 135.439 158.938 134.789 159.333 134.048C159.731 133.283 159.557 132.728 158.897 131.919L156.247 128.668L158.928 126.088ZM158.317 129.698C160.054 129.606 162.351 129.66 163.568 129.899L164.236 127.728C162.927 127.518 160.631 127.579 158.943 127.701L158.317 129.698Z" fill="white"/>
<path d="M174.216 113.329C173.18 112.691 171.282 111.951 169.789 111.477L168.908 113.078C169.356 113.249 169.839 113.439 170.333 113.643L167.573 115.917C167.657 114.871 167.686 113.622 167.714 112.528L171.554 109.853L170.463 108.288L166.401 111.117L167.162 110.193C166.72 109.842 165.881 109.33 165.219 108.979L163.853 110.545C164.399 110.888 165.063 111.369 165.53 111.724L162.266 113.998L163.356 115.563L165.661 113.958C165.611 115.178 165.535 116.612 165.454 117.063C165.325 117.57 164.989 118.002 164.716 118.302C165.135 118.558 166.033 119.249 166.405 119.626C166.753 119.054 167.405 118.447 172.067 114.432C172.526 114.682 172.95 114.913 173.285 115.141L174.216 113.329ZM163.844 121.366C163.958 119.576 163.938 117.659 163.767 115.869L161.577 115.969C161.696 116.676 161.776 117.388 161.835 118.071L160.818 118.911C160.838 117.207 160.634 115.244 160.264 113.549L157.901 113.967C158.572 116 158.871 118.446 158.88 119.12C158.884 119.819 158.864 120.294 158.591 120.594C159.162 120.942 160.075 121.622 160.435 121.919C160.574 121.647 160.867 121.311 161.927 120.376C161.936 121.335 161.892 122.089 161.839 122.455C161.762 123.32 161.653 123.857 161.331 124.213C161.846 124.512 162.699 125.169 163.024 125.447C163.258 124.933 163.72 124.304 166.669 121.043C166.378 120.72 165.879 120.036 165.599 119.507L163.844 121.366ZM167.38 122.127C165.991 124.038 164.574 126.034 163.58 127.253L165.193 128.718C166.255 127.188 167.563 125.224 168.734 123.378L167.38 122.127ZM167.481 118.525C169.142 121.098 170.03 122.782 168.443 125.291C169.054 125.349 170 125.699 170.53 125.988C172.349 122.9 171.252 120.505 169.21 117.321L167.481 118.525ZM175.463 119.875C175.257 120.019 175.186 119.981 174.867 119.523L171.976 115.372L170.248 116.576L173.149 120.741C174.178 122.218 174.838 122.504 176.152 121.589L177.172 120.879C178.294 120.097 178.215 119.165 176.733 116.753C176.207 116.944 175.318 117.147 174.768 117.113C176.02 119.005 176.202 119.361 175.966 119.525L175.463 119.875Z" fill="white"/>
<path d="M436.138 146.219C435.455 146.462 434.412 146.77 433.669 146.897L434.155 148.315C434.882 148.276 435.855 148.132 436.853 148.014L436.138 146.219ZM428.066 149.071L429.417 150.519L430.852 149.181C430.923 150.049 430.968 150.968 430.962 151.515L432.815 151.312C432.765 150.941 432.511 149.799 432.301 148.887L434.094 150.809L435.331 149.655L433.01 147.167L435.327 145.006L433.976 143.558L431.66 145.719L430.42 144.39L431.888 145.014C432.237 144.491 432.615 143.524 432.77 142.714L431.278 142.038C431.035 142.806 430.646 143.735 430.297 144.258L429.339 143.231L428.102 144.386L429.919 146.334C428.697 146.317 427.344 146.028 426.304 145.546C426.285 146.105 426.09 146.926 425.908 147.417C426.877 147.743 428.081 147.925 429.251 147.966L428.066 149.071ZM427.705 152.879C427.023 153.072 426.32 153.137 425.608 153.112C425.473 152.598 425.314 152.057 425.153 151.542C425.487 151.478 425.846 151.388 426.219 151.287L427.705 152.879ZM426.349 156.36C426.287 155.925 426.19 155.425 426.056 154.885C427.446 154.844 428.884 154.487 430.337 153.722L429.867 152.585L429.607 152.385L428.048 150.713C428.292 150.633 428.537 150.552 428.77 150.458L427.73 148.843C427.394 148.984 427.046 149.112 426.672 149.239L425.138 147.594L423.874 148.773L424.807 149.773C424.114 149.927 423.473 150.058 422.91 150.14C423.212 150.966 423.523 151.906 423.771 152.832C422.611 152.511 421.446 151.948 420.351 151.197C420.333 151.706 420.063 152.524 419.843 153.001C421.277 153.878 422.733 154.489 424.227 154.745C424.358 155.361 424.441 155.924 424.489 156.372L426.349 156.36ZM436.835 154.381C435.593 155.293 434.41 156.003 433.232 156.535C433.848 155.321 434.616 154.113 435.484 152.933L436.835 154.381ZM438.959 156.658L440.407 155.307L437.141 151.806C437.986 151.313 438.846 150.757 439.681 150.175L438.566 148.557C435.94 150.44 433.163 151.948 430.811 152.172C430.882 152.697 430.922 153.768 430.855 154.224C431.443 154.143 432.059 154.011 432.677 153.829C431.922 155.025 431.271 156.174 430.798 157.329C429.079 157.677 427.341 157.477 425.509 156.7C425.464 157.259 425.187 158.281 425.006 158.72C426.766 159.367 428.44 159.578 430.14 159.395C429.771 160.847 429.696 162.271 429.978 163.707C430.569 163.549 431.565 163.482 432.16 163.566C431.779 162.076 431.859 160.499 432.334 158.924C434.201 158.339 436.11 157.298 438.186 155.829L438.959 156.658Z" fill="white"/>
<path d="M440.678 162.678L439.356 161.704L441.444 160.05L442.562 161.462L444.114 160.232L442.996 158.821L445.663 156.709L444.457 155.185L441.79 157.297L440.616 155.816L439.064 157.045L440.237 158.526L437.754 160.493C437.07 159.978 436.482 159.525 435.978 159.121L434.657 160.787L436.089 161.812L433.238 164.069C433.055 164.214 432.942 164.188 432.808 164.019C432.66 163.861 432.28 163.381 431.892 162.862C431.611 163.406 431.065 164.137 430.689 164.503C431.39 165.418 431.938 165.994 432.556 166.194C433.145 166.416 433.655 166.219 434.431 165.604L437.747 162.978C438.268 163.346 438.814 163.717 439.324 164.071L440.678 162.678ZM442.506 164.812C442.884 164.536 443.208 164.279 443.533 164.022L443.759 163.843L445.401 165.917L444.159 166.901L442.506 164.812ZM449.998 166.272L448.785 167.233L445.198 162.703L446.411 161.742L449.998 166.272ZM440.656 173.9L437.951 170.485L439.363 169.368L442.067 172.782L440.656 173.9ZM446.257 172.449L447.668 171.332L445.4 168.467L446.642 167.484L448.597 169.953L452.675 166.724L446.54 158.977L442.237 162.385C440.035 164.128 436.855 166.462 433.686 166.722C433.782 167.22 433.833 168.328 433.771 168.859C436.215 168.669 438.844 167.321 441.027 165.845L442.748 168.018L441.394 169.091L439.606 166.833L435.076 170.42L436.216 171.859L436.625 171.535L439.329 174.95L438.934 175.263L440.13 176.773L444.645 173.197L442.634 170.657L443.989 169.585L446.257 172.449Z" fill="white"/>
<path d="M450.897 170.358C451.342 170.406 451.831 170.423 452.33 170.391L452.833 171.137L452.192 171.569C452.087 171.64 451.983 171.71 451.853 171.776L450.897 170.358ZM451.749 177.707C451.741 177.148 451.585 175.082 451.491 174.234L453.151 176.697L454.539 175.761L452.99 173.462C453.105 173.407 453.194 173.347 453.299 173.276L453.97 172.823L455.278 174.764L456.651 173.838L454.156 170.137C454.535 170.055 454.894 169.943 455.238 169.842L454.51 168.053C453.204 168.499 451.722 168.651 450.493 168.373C450.545 168.772 450.598 169.431 450.616 169.94L449.942 168.94L448.553 169.876L450.224 172.353C449.226 172.483 447.981 172.215 446.358 171.095C446.336 171.674 446.116 172.539 445.919 173.019C447.451 173.94 448.796 174.293 449.919 174.317C449.909 175.3 449.861 176.549 449.769 177.218L451.749 177.707ZM451.045 182.588L450.209 183.152L446.054 176.988L446.889 176.424L451.045 182.588ZM443.889 178.446L444.77 177.853L448.925 184.017L448.045 184.611L443.889 178.446ZM440.802 177.988L441.979 179.734L442.471 179.402L446.627 185.566L446.149 185.888L447.376 187.709L453.66 183.474L447.1 173.742L440.802 177.988ZM455.801 181.336L454.272 179.067L456.794 177.367L458.323 179.636L455.801 181.336ZM457.255 174.669L451.598 178.482L455.421 184.154L461.078 180.341L457.255 174.669Z" fill="white"/>
<path d="M453.817 188.862L454.727 188.35L456.044 190.686L455.134 191.199L453.817 188.862ZM458.255 189.44L457.424 189.909L456.107 187.572L456.938 187.104L458.255 189.44ZM460.834 190.425L457.503 184.513L448.502 189.585L449.474 191.31L452.438 189.64L453.754 191.977L452.704 192.569C452.515 192.675 452.433 192.639 452.327 192.45C452.196 192.255 451.836 191.653 451.549 191.07C451.252 191.569 450.681 192.242 450.247 192.61C450.769 193.535 451.2 194.263 451.789 194.613C452.356 194.996 452.9 194.896 453.715 194.437L460.834 190.425ZM463.469 185.531C463.196 186.036 462.885 186.583 462.547 187.084L461.106 184.858C462.204 185.046 463.483 185.151 464.624 185.087L464.028 182.819C462.62 183.034 461.098 182.9 460.661 182.857C460.166 182.785 459.82 182.649 459.616 182.434C459.254 182.927 458.552 183.735 458.229 184.042C458.607 184.345 459.07 184.911 461.513 188.513C461.293 188.782 461.079 189.026 460.871 189.206L462.499 190.52C463.346 189.712 464.291 188.126 464.951 186.803L463.469 185.531ZM462.627 196.832C463.431 198.259 464.278 198.443 466.4 197.515C466.219 196.936 466.086 196.04 466.156 195.505C464.747 196.195 464.459 196.233 464.167 195.716L463.213 194.022C462.877 193.427 462.887 193.297 463.451 192.979L464.377 192.458C465.553 193.592 466.879 194.808 468.122 195.657L468.799 193.705C467.969 193.222 466.906 192.437 465.882 191.609L468.14 190.337L467.097 188.486L462.377 191.146C460.668 192.109 460.391 192.865 461.416 194.684L462.627 196.832ZM455.697 198.32C455.352 197.709 455.369 197.555 455.917 197.245L457.156 196.547C458.415 197.718 459.846 198.937 461.169 199.782L461.844 197.79C460.918 197.32 459.791 196.529 458.724 195.663L460.841 194.47L459.799 192.62L454.875 195.395C453.165 196.358 452.882 197.138 453.916 198.973L455.153 201.168C455.992 202.658 456.902 202.806 459.213 201.773C459.047 201.184 458.913 200.288 458.959 199.746C457.347 200.551 456.996 200.625 456.686 200.076L455.697 198.32Z" fill="white"/>
<path d="M473.025 208.014L470.667 202.976L471.58 202.549L473.938 207.587L473.025 208.014ZM470.677 209.113L468.32 204.075L469.233 203.648L471.59 208.686L470.677 209.113ZM476.379 208.77L472.275 199.998L465.933 202.966L470.037 211.737L476.379 208.77ZM470.746 200.257C470.897 199.391 471.022 197.703 471.138 196.635L469.276 196.096C469.093 197.234 468.889 198.88 468.674 199.736L470.746 200.257ZM465.969 201.558C466.113 200.676 466.245 199.005 466.321 197.936L464.425 197.451C464.314 198.616 464.094 200.269 463.887 201.101L465.969 201.558ZM463.502 201.977C461.161 201.9 458.544 201.575 456.925 201.299L456.384 203.54C458.423 203.778 460.77 203.952 462.846 204.014L463.502 201.977ZM460.923 207.676L463.058 206.676L464.142 208.991L465.837 208.198L464.754 205.883L466.384 205.12L465.507 203.245L460.583 205.549C460.013 205.816 459.585 205.539 459.279 205.225C458.919 205.772 458.119 206.484 457.643 206.826C458.054 207.11 458.524 207.646 460.859 210.726C461.197 210.429 461.878 209.971 462.351 209.71L460.923 207.676ZM462.912 212.946C462.736 212.571 462.787 212.467 463.325 212.215L464.727 211.559C465.685 212.502 466.859 213.523 467.934 214.292L468.783 212.285C468.083 211.936 467.228 211.383 466.423 210.766L468.493 209.797L467.616 207.922L462.431 210.348C460.687 211.165 460.325 211.791 461.08 213.405L461.797 214.938C462.384 216.193 463.217 216.4 465.387 215.603C465.265 215.044 465.2 214.14 465.334 213.62C463.844 214.258 463.553 214.315 463.385 213.956L462.912 212.946Z" fill="white"/>
<path d="M471.358 225.267L468.692 226.257L466.211 219.574L468.877 218.584L471.358 225.267ZM462.848 218.48L463.612 220.539L464.355 220.263L466.835 226.946L466.16 227.196L466.956 229.339L473.925 226.752L469.885 215.868L462.848 218.48ZM474.159 217.296C475.254 218.022 476.392 218.656 477.606 219.185C476.996 220.543 476.584 221.81 476.282 223.016L474.159 217.296ZM480.694 218.038C477.404 217.244 474.178 214.812 471.793 212.164C471.494 212.909 470.954 213.782 470.499 214.315C471.135 214.943 471.839 215.546 472.57 216.119L471.743 216.426L474.875 224.864L475.972 224.456C475.811 225.419 475.713 226.396 475.625 227.35C476.35 227.388 477.312 227.703 477.978 228.051C477.96 225.466 478.274 222.796 479.48 219.89C479.786 219.988 480.108 220.08 480.43 220.171L480.694 218.038Z" fill="white"/>
<path d="M483.267 235.047L484.52 239.444L477.111 241.555L477.693 243.598L486.868 240.984L484.48 232.605L475.305 235.22L475.858 237.159L483.267 235.047ZM474.203 234.898C473.842 234.289 473.486 233.698 473.126 233.089L476.692 232.073L477.151 233.683L479.038 233.145L478.579 231.535L481.626 230.667L482.188 232.641L484.109 232.093L482.378 226.017L480.456 226.565L481.058 228.676L478.012 229.545L477.484 227.692L475.597 228.23L476.125 230.082L472.057 231.242C471.575 230.406 471.126 229.617 470.79 228.964L468.935 229.941C469.94 231.564 471.207 233.711 472.424 235.685L474.203 234.898ZM472.711 242.734C472.603 242.353 472.724 242.188 473.191 242.055L477 240.969L476.679 239.844C478.019 239.818 479.243 239.581 480.299 239.28L483.086 238.486L482.544 236.582L479.809 237.361C477.143 238.121 473.577 238.613 470.022 234.872C469.841 235.354 469.262 236.212 468.933 236.568C470.692 238.406 472.612 239.3 474.471 239.65L472.429 240.232C470.957 240.651 470.7 241.324 471.109 242.76L471.469 244.024C471.967 245.772 472.848 245.84 475.602 245.261C475.59 244.759 475.68 244.022 475.888 243.439C473.623 244.028 473.091 244.067 472.958 243.6L472.711 242.734Z" fill="white"/>
<path d="M484.734 245.076L486.887 255.678L484.823 256.097L485.271 258.302L489.293 257.485L488.086 251.54C488.649 251.15 489.258 250.622 489.751 250.155L488.672 248.188C488.362 248.472 487.964 248.773 487.577 249.035L486.265 242.579L482.244 243.396L482.67 245.495L484.734 245.076ZM483.453 249.983C483.959 249.311 484.464 247.996 484.74 247.003L483.134 246.062C482.788 247.069 482.184 248.349 481.685 248.965L483.453 249.983ZM480.14 244.797C479.819 245.836 479.24 247.147 478.783 247.791L480.59 248.728C481.04 248.049 481.54 246.717 481.795 245.71L480.14 244.797ZM479.14 259.768L480.904 259.409L479.607 253.024C481.337 253.131 483.264 252.85 485.448 252.48L484.996 250.257C482.707 250.649 480.791 250.983 479.149 250.766L477.801 244.133L476.037 244.492L477.195 250.189C475.738 249.438 474.477 247.931 473.279 245.199C472.913 245.751 472.21 246.445 471.716 246.728C473.439 250.419 475.383 252.119 477.714 252.747L479.14 259.768ZM475.798 252.989C475.565 255.369 474.994 257.891 474.349 259.418L476.286 260.366C476.825 258.768 477.361 256.07 477.548 253.644L475.798 252.989Z" fill="white"/>
<path d="M480.192 262.779C478.942 262.063 477.55 260.785 476.649 259.519C476.394 260.095 475.809 261.074 475.469 261.552C476.522 262.727 478.184 264.135 479.673 265.02L480.192 262.779ZM482.702 272.026C482.17 272.563 481.663 273.007 481.25 273.331L482.457 274.868C483.513 274.029 485.013 272.373 486.076 270.863L485.037 269.359C484.758 269.739 484.443 270.122 484.11 270.508L483.066 265.178C484.516 267.356 486.231 269.483 488.155 271.384L489.339 269.677C488.563 268.975 487.813 268.198 487.097 267.398L486.474 263.848C487.355 264.809 488.324 265.74 489.33 266.54C489.849 268.816 490.443 270.973 491.119 272.757L492.683 271.039C491.593 268.109 490.511 263.201 489.809 258.863C489.351 259.119 488.545 259.491 488.013 259.594C488.213 260.911 488.453 262.26 488.714 263.624C487.741 262.802 486.946 261.957 486.668 261.611C486.226 261.122 485.927 260.76 485.82 260.338C485.329 260.617 484.473 261.031 484.091 261.169C484.283 261.545 484.464 262.121 484.991 264.903C484.148 263.811 483.528 262.908 483.211 262.403C482.5 261.349 482.109 260.69 481.933 260.005C481.442 260.283 480.497 260.709 480.133 260.845C480.439 261.406 480.644 262.178 481.494 266.245L477.582 266.731C477.367 266.757 477.303 266.675 477.247 266.373C477.209 266.07 477.074 264.98 477.014 264.062C476.48 264.437 475.632 264.905 475.02 265.09C475.184 266.412 475.326 267.41 475.743 268.138C476.18 268.882 476.743 269.03 477.779 268.901L481.941 268.384L482.702 272.026ZM479.969 269.59C479.124 271.11 477.857 273.027 477.008 273.931L478.491 275.651C479.365 274.653 480.534 272.676 481.327 271.181L479.969 269.59Z" fill="white"/>
<path d="M485.051 291.398C486.145 290.864 487.786 289.658 488.985 288.65L488.105 287.049C487.721 287.336 487.302 287.643 486.865 287.95L486.422 284.402C487.26 285.032 488.299 285.725 489.209 286.334L489.413 291.01L491.319 290.927L491.103 285.981L491.477 287.118C492.009 286.933 492.891 286.498 493.542 286.127L492.95 284.135C492.368 284.413 491.606 284.716 491.057 284.92L490.883 280.946L488.977 281.029L489.099 283.835C488.096 283.14 486.925 282.308 486.587 281.999C486.228 281.618 486.044 281.103 485.936 280.712C485.495 280.929 484.431 281.318 483.914 281.431C484.21 282.03 484.374 282.906 485.271 288.993C484.813 289.247 484.391 289.481 484.02 289.642L485.051 291.398ZM483.815 278.336C485.266 279.39 486.896 280.4 488.499 281.212L489.587 279.309C488.926 279.032 488.282 278.718 487.673 278.402L487.508 277.094C488.936 278.022 490.704 278.9 492.333 279.496L493.246 277.276C491.169 276.754 488.943 275.698 488.369 275.345C487.776 274.974 487.386 274.703 487.279 274.311C486.679 274.608 485.616 275.014 485.172 275.16C485.327 275.423 485.454 275.85 485.677 277.246C484.862 276.741 484.248 276.299 483.968 276.059C483.278 275.531 482.883 275.151 482.755 274.689C482.226 274.964 481.215 275.332 480.806 275.458C481.115 275.931 481.399 276.658 482.575 280.894C483.004 280.822 483.849 280.767 484.445 280.813L483.815 278.336ZM481.279 280.915C480.408 278.719 479.481 276.453 478.983 274.961L476.882 275.539C477.606 277.256 478.565 279.412 479.498 281.389L481.279 280.915ZM484.267 282.929C481.206 282.954 479.307 282.803 478.037 280.119C477.662 280.604 476.86 281.216 476.332 281.509C477.967 284.699 480.576 285.053 484.359 285.033L484.267 282.929ZM478.855 288.948C478.844 288.696 478.914 288.657 479.471 288.633L484.525 288.413L484.433 286.309L479.362 286.53C477.563 286.608 476.968 287.013 477.038 288.613L477.092 289.854C477.152 291.221 477.982 291.653 480.812 291.691C480.932 291.146 481.237 290.286 481.56 289.839C479.292 289.884 478.894 289.847 478.881 289.56L478.855 288.948Z" fill="white"/>
<path d="M174.526 470.878L176.604 467.613L180.036 469.797L177.958 473.062L174.526 470.878ZM169.196 467.486L171.274 464.221L174.691 466.396L172.613 469.661L169.196 467.486ZM177.735 465.837L179.407 463.209L177.493 461.992L175.821 464.619L170.582 461.285L165.712 468.939L167.534 470.098L168.065 469.263L171.482 471.437L168.467 476.175L170.381 477.393L173.396 472.655L176.828 474.839L176.344 475.598L178.243 476.806L183.065 469.229L177.735 465.837Z" fill="white"/>
<path d="M190.089 479.651L191.575 480.422L190.343 480.412C190.495 481.018 190.661 481.793 190.709 482.365L189.111 481.537L190.089 479.651ZM191.301 482.672L192.372 482.639C192.315 482.123 192.11 481.267 191.91 480.595L192.789 481.051L193.618 479.453L190.917 478.053L191.695 476.551L194.748 478.133L195.609 476.471L187.763 472.404L186.901 474.066L189.938 475.64L189.159 477.142L186.522 475.775L185.694 477.373L188.331 478.74L187.353 480.626L184.141 478.961L183.338 480.511L191.616 484.802L192.419 483.252L191.301 482.672ZM182.234 481.115L187.419 471.111L196.88 476.014L191.695 486.018L182.234 481.115ZM186.388 468.367L178.975 482.67L180.909 483.672L181.323 482.873L190.784 487.776L190.369 488.575L192.399 489.627L199.812 475.324L186.388 468.367Z" fill="white"/>
<path d="M209.828 481.528L212.062 482.437L211.336 484.221C210.665 485.872 210.714 486.707 212.364 487.379L213.431 487.813C213.798 487.962 214.205 488.108 214.519 488.1C214.619 487.616 214.864 486.919 215.017 486.398C214.773 486.377 214.336 486.257 214.069 486.149L213.219 485.803C212.969 485.701 213.017 485.488 213.214 485.004L214.692 481.369L208.723 478.941L207.991 480.742C207.523 481.892 206.784 482.991 204.317 483.037C204.576 483.453 204.974 484.528 205.051 485.006C207.866 484.869 209.143 483.212 209.814 481.561L209.828 481.528ZM205.661 480.26C205.402 479.319 204.609 477.734 204.024 476.641L202.262 477.342C202.826 478.485 203.519 480.127 203.754 481.078L205.661 480.26ZM200.986 488.502L203.557 482.183L199.655 480.596L198.882 482.497L200.866 483.304L198.831 488.306C198.506 489.106 197.808 489.483 197.333 489.601C197.51 490.12 197.695 491.147 197.648 491.692C198.111 491.413 198.851 491.17 203.001 489.808C202.893 489.356 202.865 488.47 202.915 487.868L200.986 488.502ZM210.159 489.455C209.279 490.185 208.287 490.714 207.215 491.056C206.643 490.026 206.275 488.924 206.158 487.827L210.159 489.455ZM212.247 488.05L211.879 487.998L204.543 485.013L203.79 486.864L204.991 487.352L204.229 487.315C204.327 488.793 204.677 490.178 205.204 491.462C203.796 491.627 202.292 491.501 200.733 491.178C200.88 491.724 200.962 492.67 200.935 493.262C202.798 493.553 204.563 493.611 206.236 493.32C207.107 494.665 208.297 495.849 209.785 496.92C210.259 496.472 211.111 495.905 211.721 495.648C210.369 494.768 209.245 493.805 208.388 492.757C210.161 492.079 211.789 490.895 213.23 489.072L212.247 488.05Z" fill="white"/>
<path d="M222.66 486.416C222.278 485.51 221.259 484.033 220.538 483.005L218.848 483.92C219.566 485.023 220.472 486.56 220.827 487.495L222.66 486.416ZM218.927 495.346L220.945 488.717L216.347 487.318L215.728 489.35L218.243 490.115L216.665 495.298C216.43 496.073 215.706 496.473 215.248 496.616C215.439 497.164 215.656 498.246 215.665 498.832C216.124 498.501 216.913 498.195 221.134 496.752C221.036 496.27 220.993 495.298 221.051 494.675L218.927 495.346ZM232.244 492.268L228.283 491.062L229.903 485.741L227.698 485.071L226.079 490.392L221.946 489.134L221.297 491.27L225.43 492.527L222.825 501.086L225.03 501.756L227.634 493.198L231.594 494.403L232.244 492.268Z" fill="white"/>
<path d="M235.444 491.491C235.795 491.215 236.158 490.886 236.493 490.514L237.374 490.698L237.216 491.456C237.19 491.579 237.165 491.702 237.118 491.84L235.444 491.491ZM241.182 496.161C240.786 495.766 239.233 494.395 238.574 493.853L241.482 494.458L241.823 492.819L239.109 492.254C239.152 492.135 239.174 492.029 239.2 491.906L239.365 491.113L241.656 491.59L241.994 489.968L237.623 489.058C237.838 488.735 238.017 488.405 238.192 488.092L236.423 487.319C235.799 488.55 234.844 489.693 233.769 490.352C234.084 490.601 234.582 491.036 234.95 491.388L233.77 491.142L233.428 492.781L236.354 493.39C235.729 494.18 234.651 494.856 232.707 495.187C233.095 495.617 233.541 496.39 233.735 496.872C235.475 496.462 236.684 495.776 237.506 495.009C238.185 495.721 239.021 496.649 239.423 497.192L241.182 496.161ZM244.084 500.148L243.879 501.135L236.601 499.62L236.806 498.633L244.084 500.148ZM236.069 502.175L236.285 501.135L243.563 502.651L243.347 503.69L236.069 502.175ZM233.537 504.001L235.599 504.43L235.72 503.849L242.998 505.365L242.881 505.928L245.03 506.376L246.575 498.957L235.086 496.565L233.537 504.001ZM246.617 495.932L243.938 495.374L244.559 492.396L247.237 492.954L246.617 495.932ZM243.005 490.142L241.615 496.821L248.311 498.216L249.702 491.537L243.005 490.142Z" fill="white"/>
<path d="M260.614 495.464L260.439 496.966L255.665 496.409L255.456 498.197L266.952 499.538L267.161 497.75L262.548 497.212L262.724 495.71L266.603 496.163L266.814 494.357L262.934 493.904L263.168 491.902L261.058 491.656L260.825 493.658L259.412 493.493C259.627 493.047 259.841 492.619 260.022 492.151L258.108 491.475C257.515 492.982 256.596 494.488 255.547 495.398C256.023 495.671 256.845 496.238 257.221 496.59C257.61 496.201 258.008 495.74 258.361 495.201L260.614 495.464ZM258.387 501.348L263.268 501.917L263.059 503.705L258.178 503.135L258.387 501.348ZM264.971 505.65L265.576 500.465L256.601 499.417L255.996 504.602L264.971 505.65ZM255.535 494.418C255.077 493.531 253.997 492.227 253.105 491.326L251.4 492.268C252.279 493.277 253.3 494.629 253.704 495.509L255.535 494.418ZM254.788 497.865L250.73 497.391L250.5 499.358L252.521 499.594L251.995 504.099C251.258 504.357 250.447 504.788 249.692 505.353L250.745 507.36C251.648 506.451 252.637 505.588 253.155 505.648C253.495 505.688 253.977 506.215 254.595 506.668C255.644 507.461 257.035 507.804 259.199 508.057C261.13 508.282 264.162 508.545 265.765 508.624C265.848 508.072 266.302 507.128 266.582 506.599C264.617 506.659 261.418 506.431 259.487 506.206C257.592 505.985 256.027 505.73 255.012 504.959C254.596 504.638 254.303 504.35 254.054 504.158L254.788 497.865Z" fill="white"/>
<path d="M284.657 499.952L284.719 497.739L277.648 497.542C277.874 495.873 277.939 494.218 277.998 492.743L275.659 492.678C275.599 494.153 275.572 495.791 275.345 497.477L268.795 497.295L268.734 499.508L274.923 499.68C274.135 502.756 272.343 505.695 268.171 507.415C268.788 507.883 269.397 508.674 269.722 509.277C273.588 507.548 275.609 504.796 276.664 501.818C277.971 505.33 279.985 508.015 283.199 509.635C283.558 509.033 284.286 508.099 284.839 507.664C281.512 506.203 279.414 503.317 278.324 499.775L284.657 499.952Z" fill="white"/>
<path d="M289.769 496.169C289.452 495.45 288.682 494.398 288.003 493.648L286.477 494.611C287.122 495.399 287.842 496.508 288.14 497.228L289.769 496.169ZM290.539 501.765L292.605 501.634L292.025 492.509L289.959 492.64L290.235 496.987C288.811 497.853 287.404 498.7 286.428 499.231L287.427 501.043C288.309 500.446 289.365 499.748 290.366 499.035L290.539 501.765ZM301.511 493.349L301.155 493.425L297.401 493.664C297.598 493.363 297.794 493.044 297.956 492.745L295.884 492.209C295.279 493.474 293.859 494.971 292.383 495.877C292.804 496.247 293.424 496.929 293.758 497.358C294.502 496.86 295.221 496.255 295.897 495.545L300.227 495.27C299.73 496.257 299.007 497.079 298.128 497.73C297.588 497.169 296.807 496.515 296.2 496.049L294.731 497.062C295.284 497.532 295.954 498.139 296.458 498.684C295.335 499.188 294.06 499.558 292.652 499.828C293.054 500.181 293.668 501.044 293.879 501.535C298.32 500.459 301.721 498.349 302.824 493.86L301.511 493.349ZM303.119 503.888L303 502.02L296.012 502.464C296.045 502.119 296.076 501.756 296.089 501.395L293.861 501.536C293.848 501.898 293.817 502.261 293.785 502.605L287.013 503.036L287.131 504.904L293.311 504.511C292.594 506 290.966 507.059 287.047 507.831C287.471 508.255 287.99 509.052 288.185 509.563C292.31 508.633 294.282 507.299 295.231 505.489C296.836 507.48 299.131 508.398 302.622 508.555C302.838 507.982 303.321 507.067 303.76 506.589C300.333 506.59 297.964 505.929 296.652 504.299L303.119 503.888Z" fill="white"/>
<path d="M318.041 493.433L318.268 494.928L312.431 495.814L312.204 494.32L318.041 493.433ZM307.986 500.714C308.879 499.158 309.724 497.409 310.376 495.708L310.454 496.224L312.038 495.983L312.3 497.71L319.027 496.688L318.765 494.961L320.384 494.715L319.868 491.316L316.397 491.844C316.102 491.215 315.616 490.415 315.139 489.795L313.151 490.607C313.478 491.085 313.819 491.653 314.102 492.192L309.938 492.825L310.335 495.441L308.712 494.704C308.504 495.373 308.261 496.047 307.994 496.689L306.411 497.057C307.191 495.482 307.89 493.609 308.318 491.869L306.314 491.264C305.987 493.425 305.153 495.846 304.843 496.439C304.558 497.083 304.333 497.518 303.955 497.667C304.282 498.145 304.708 499.027 304.874 499.402C305.14 499.234 305.551 499.063 307.158 498.618C306.671 499.603 306.26 500.375 306.018 500.703C305.564 501.428 305.214 501.881 304.803 502.053C305.093 502.519 305.528 503.345 305.673 503.705C306.06 503.373 306.739 503.051 310.63 501.696C310.527 501.256 310.423 500.453 310.413 499.908L307.986 500.714ZM312.793 501.676C312.471 502.672 311.947 503.771 311.377 504.695L311.014 503.385C308.939 504.228 306.793 505.082 305.374 505.571L306.033 507.51C307.453 506.912 309.228 506.133 310.917 505.384L310.872 505.446C311.36 505.663 312.286 506.123 312.726 506.384C313.446 505.255 314.327 503.501 314.848 502.02L312.793 501.676ZM321.186 499.637L320.908 497.804L310.818 499.337L311.096 501.17L315.278 500.534L315.895 504.592C315.924 504.787 315.861 504.852 315.648 504.884C315.452 504.914 314.722 505.025 314.097 505.102C314.43 505.615 314.795 506.343 314.95 506.884C316.074 506.731 316.887 506.571 317.449 506.194C318.044 505.795 318.128 505.272 317.985 504.329L317.36 500.218L321.186 499.637ZM318.065 501.622C318.973 502.686 320.048 504.125 320.552 505.049L322.329 503.924C321.789 503.004 320.669 501.627 319.731 500.604L318.065 501.622Z" fill="white"/>
<path d="M334.904 497.027L335.585 499.788L328.664 501.494L327.983 498.732L334.904 497.027ZM327.195 504.711L329.327 504.185L329.138 503.416L336.058 501.71L336.231 502.41L338.45 501.863L336.672 494.645L325.399 497.423L327.195 504.711ZM327.303 493.338C328.149 492.333 328.908 491.274 329.571 490.128C330.852 490.888 332.063 491.442 333.228 491.878L327.303 493.338ZM328.782 486.93C327.619 490.109 324.837 493.038 321.936 495.106C322.642 495.488 323.447 496.124 323.926 496.636C324.622 496.075 325.301 495.445 325.953 494.783L326.164 495.64L334.903 493.486L334.623 492.35C335.561 492.62 336.52 492.828 337.458 493.023C337.579 492.308 338.001 491.388 338.422 490.765C335.852 490.49 333.234 489.874 330.485 488.346C330.617 488.054 330.744 487.744 330.872 487.435L328.782 486.93Z" fill="white"/>
<path d="M341.963 490.157C342.597 488.894 343.11 487.501 343.424 486.082C344.699 486.807 346.077 487.667 347.09 488.406L341.963 490.157ZM347.998 488.78L348.874 487.112C347.734 486.227 345.551 485.013 343.768 484.081C343.789 483.808 343.821 483.512 343.842 483.238L341.787 483.293C341.64 485.759 340.631 488.652 339.047 490.753C339.606 490.942 340.538 491.442 341.007 491.757C341.131 491.563 341.271 491.363 341.395 491.168L343.518 497.386C344.187 499.345 345.004 499.675 346.997 498.994L349.722 498.063C351.46 497.47 351.743 496.574 351.145 494.097C350.599 494.169 349.676 494.142 349.14 493.963C349.649 495.787 349.646 496.168 348.947 496.407L346.648 497.192C345.881 497.454 345.727 497.392 345.489 496.694L343.714 491.499L346.406 490.579C346.804 492.079 346.9 492.75 346.81 492.99C346.744 493.184 346.619 493.265 346.398 493.34C346.142 493.428 345.631 493.602 345.063 493.72C345.475 494.093 345.924 494.738 346.121 495.261C346.877 495.022 347.535 494.778 347.926 494.587C348.363 494.362 348.691 494.098 348.87 493.618C349.105 493.024 348.85 491.723 348.021 488.849L347.998 488.78ZM349.821 482.756L347.879 483.419L351.165 493.044L353.107 492.38L349.821 482.756ZM350.58 480.69L355.088 493.891C355.198 494.215 355.097 494.364 354.779 494.491C354.439 494.608 353.297 494.997 352.207 495.313C352.682 495.759 353.28 496.506 353.557 497.039C355.158 496.492 356.231 496.069 356.819 495.507C357.43 494.956 357.494 494.363 357.098 493.205L352.59 480.004L350.58 480.69Z" fill="white"/>
<path d="M359.685 488.789C359.779 489.792 359.705 490.949 359.36 491.853C359.817 491.905 360.631 492.093 361.037 492.207C361.354 491.197 361.457 489.752 361.366 488.491L359.685 488.789ZM360.448 480.047C360.556 480.729 360.635 481.699 360.653 482.401L358.714 483.268L359.407 482.702C359.121 482.238 358.562 481.562 358.033 481.128L360.448 480.047ZM365.862 485.493L365.127 483.85L362.416 485.063L361.85 483.798L364.824 482.468L364.104 480.857L362.395 481.622C362.413 481.002 362.357 480.258 362.34 479.516L360.875 479.856L362.946 478.93L362.233 477.336L359.637 478.498C359.213 478.036 358.647 477.521 358.166 477.105L356.608 478.295C356.948 478.616 357.335 478.995 357.681 479.373L354.872 480.629L355.585 482.223L357.803 481.231L356.602 482.162C357.06 482.569 357.55 483.178 357.86 483.651L356.25 484.371L356.97 485.981L360.092 484.584L360.658 485.85L357.635 487.202L358.37 488.845L361.393 487.493L362.944 490.96C363.025 491.14 362.998 491.212 362.817 491.293C362.636 491.373 362.127 491.601 361.626 491.805C362.062 492.163 362.594 492.733 362.865 493.164C363.736 492.774 364.386 492.464 364.761 491.98C365.129 491.481 365.077 491.011 364.724 490.222L363.151 486.706L365.862 485.493ZM371.498 477.727L366.454 479.983L365.299 477.404C366.777 476.388 368.286 475.22 369.415 474.084L367.263 473.331C366.33 474.419 364.57 475.817 362.91 476.955L365.49 482.722C366.195 484.299 366.977 486.178 367.188 488.016C366.636 487.533 365.661 486.806 364.837 486.287L363.871 487.567C364.67 488.117 365.691 488.902 366.256 489.458L367.186 488.056C367.279 488.705 367.275 489.357 367.169 489.957C367.675 489.987 368.719 490.249 369.186 490.455C369.68 487.769 368.394 484.321 367.314 481.906L367.262 481.791L368.872 481.07L372.481 489.138L374.387 488.285L370.778 480.218L372.306 479.534L371.498 477.727Z" fill="white"/>
<path d="M388.31 471.531L382.134 474.98L379.474 470.219L384.739 467.278L383.703 465.424L371.194 472.41L372.23 474.265L377.526 471.307L380.185 476.069L374.072 479.483L375.125 481.369L381.238 477.954L384.143 483.156L386.092 482.068L383.187 476.866L389.363 473.417L388.31 471.531ZM373.75 474.735C374.841 475.507 376.092 476.602 376.723 477.363L378.23 475.779C377.565 474.996 376.262 473.992 375.182 473.276L373.75 474.735ZM384.736 472.847C384.822 471.747 384.74 470.123 384.63 468.597L382.353 469.209C382.625 470.397 382.832 472.096 382.838 473.288L384.736 472.847Z" fill="white"/>
<path d="M400.929 465.676L402.552 468.055L396.248 472.357L394.625 469.978L400.929 465.676ZM396.109 476.048L397.923 474.81L397.405 474.052L403.709 469.749L404.216 470.493L406.119 469.194L401.675 462.682L391.654 469.521L396.109 476.048ZM394.434 460.215C395.359 460.389 396.38 460.608 397.406 460.866L391.443 465.22C391.832 463.363 392.103 461.239 392.096 459.217L389.795 459.676C390.001 462.15 389.609 465.055 389.403 465.871C389.237 466.682 389.073 467.208 388.757 467.576C389.28 467.894 390.161 468.579 390.494 468.875C391.099 468.069 392.135 467.319 399.765 461.545C400.362 461.748 400.893 461.952 401.31 462.147L402.07 460.037C400.445 459.315 397.428 458.694 395.187 458.349L394.434 460.215Z" fill="white"/>
<rect x="241" y="143" width="82" height="26" fill="#1F1F1F"/>
<path d="M256.595 156.093L253.128 156.88L252.71 155.037L256.177 154.25L256.595 156.093ZM257.226 158.872L253.759 159.659L253.337 157.801L256.804 157.015L257.226 158.872ZM248.715 158.85L252.27 158.044L252.691 159.901L249.136 160.708L248.715 158.85ZM248.088 156.085L251.642 155.279L252.06 157.122L248.506 157.929L248.088 156.085ZM257.026 153.042L246.844 155.352L248.332 161.906L258.513 159.595L257.026 153.042ZM256.063 162.628C255.255 162.119 253.74 161.54 252.538 161.259L251.97 162.08C253.186 162.419 254.705 163.013 255.483 163.528L256.063 162.628ZM249.136 167.414C249.64 166.316 249.807 164.678 249.886 163.399L248.844 163.282C248.781 164.496 248.55 166.055 248.039 167.125L249.136 167.414ZM253.559 165.826C252.74 166.012 252.577 165.972 252.484 165.563L251.83 162.681L250.747 162.926L251.405 165.823C251.667 166.978 252.149 167.207 253.715 166.852L256.655 166.185C257.986 165.883 258.224 165.306 257.922 163.298C257.599 163.294 257.109 163.236 256.82 163.117C257.119 164.772 257.055 165.033 256.338 165.196L253.559 165.826ZM257.367 161.594C258.459 162.545 259.653 163.874 260.168 164.788L261.115 164.081C260.553 163.162 259.34 161.884 258.242 160.98L257.367 161.594Z" fill="white"/>
<path d="M272.765 153.358L269.071 153.794L268.907 152.408L272.602 151.973L272.765 153.358ZM273.032 155.622L269.338 156.058L269.172 154.658L272.867 154.222L273.032 155.622ZM273.299 157.887L269.605 158.322L269.438 156.907L273.132 156.471L273.299 157.887ZM273.552 150.939L267.772 151.621L268.684 159.352L274.464 158.67L273.552 150.939ZM267.292 159.97C268.056 160.559 269.077 161.405 269.576 161.92L270.303 161.17C269.776 160.673 268.759 159.857 268 159.312L267.292 159.97ZM263.278 164.355C263.777 163.465 264.097 162.083 264.307 161.046L263.295 160.788C263.111 161.792 262.754 163.118 262.251 163.977L263.278 164.355ZM265.707 159.854L265.28 156.234C266.001 156.708 266.921 157.34 267.352 157.667L267.843 156.702C267.42 156.45 265.767 155.497 265.159 155.207L265.061 154.372L267.414 154.095L267.3 153.126L264.947 153.404L264.69 151.229L263.632 151.354L263.889 153.529L261.178 153.849L261.292 154.817L263.809 154.52C263.333 156.117 262.412 157.781 261.416 158.684C261.66 158.836 262.013 159.142 262.222 159.374C262.976 158.591 263.676 157.36 264.188 156.061L264.65 159.979L265.707 159.854ZM267.847 163.272C266.983 163.374 266.826 163.317 266.78 162.93L266.502 160.576L265.415 160.704L265.694 163.073C265.83 164.22 266.282 164.469 267.891 164.279L270.974 163.915C272.315 163.757 272.605 163.27 272.534 161.39C272.214 161.368 271.748 161.256 271.472 161.093C271.592 162.619 271.497 162.842 270.782 162.926L267.847 163.272ZM272.562 159.831C273.274 160.744 274.201 161.949 274.635 162.683L275.603 162.055C275.141 161.34 274.186 160.153 273.464 159.287L272.562 159.831Z" fill="white"/>
<path d="M285.64 158.673L276.373 158.899L276.399 159.978L285.667 159.753L285.64 158.673ZM279.311 155.676C279.486 154.862 279.658 153.927 279.845 152.977L288.392 152.769L288.367 151.704L280.029 151.907C280.135 151.35 280.212 150.793 280.304 150.28L279.177 150.188C278.867 152.251 278.336 155.085 277.911 156.745L278.841 156.738L287.479 156.528C287.217 159.97 286.88 161.524 286.321 161.972C286.16 162.141 285.935 162.162 285.56 162.171C285.126 162.181 283.971 162.21 282.799 162.133C283.031 162.428 283.207 162.888 283.245 163.218C284.297 163.267 285.377 163.256 285.916 163.213C286.545 163.167 286.932 163.053 287.298 162.654C287.957 161.993 288.335 160.273 288.651 155.989C288.677 155.838 288.683 155.448 288.683 155.448L279.311 155.676Z" fill="white"/>
<path d="M304.64 154.825L299.283 153.94L299.701 151.409L298.606 151.229L298.188 153.759L292.83 152.875L291.012 163.885L292.092 164.064L293.732 154.133L297.995 154.837C297.586 156.761 296.65 159.115 293.108 160.309C293.327 160.543 293.631 161.004 293.755 161.267C295.931 160.426 297.224 159.225 298.006 157.895C299.158 159.393 300.389 161.147 300.98 162.263L302 161.702C301.278 160.457 299.758 158.428 298.506 156.898C298.778 156.259 298.96 155.62 299.09 155.018L303.382 155.727L301.988 164.163C301.944 164.429 301.841 164.503 301.572 164.474C301.259 164.437 300.253 164.271 299.224 164.056C299.338 164.379 299.415 164.923 299.411 165.227C300.728 165.444 301.645 165.596 302.195 165.489C302.728 165.395 302.949 165.066 303.066 164.356L304.64 154.825Z" fill="white"/>
<path d="M309.015 155.614L318.847 158.384L318.388 160.015L319.47 160.32L320.207 157.707L315.11 156.271C315.059 155.789 314.914 155.141 314.776 154.635L313.606 154.585C313.71 154.989 313.801 155.497 313.854 155.918L308.252 154.339L307.516 156.953L308.555 157.246L309.015 155.614ZM314.828 158.654C315.925 159.851 317.196 161.534 317.744 162.577L318.694 162.081C318.132 161.034 316.801 159.397 315.707 158.247L314.828 158.654ZM311.35 157.004C310.216 157.822 308.574 158.451 307.106 158.738C307.284 158.991 307.527 159.512 307.629 159.759C309.155 159.378 310.946 158.605 312.253 157.617L311.35 157.004ZM309.342 162.251C310.651 161.81 311.91 161.214 313.001 160.493C313.661 161.801 314.451 162.927 315.377 163.952L309.342 162.251ZM308.318 165.61L308.998 163.198L314.917 164.866L314.238 167.277L308.318 165.61ZM313.336 158.919C311.366 160.655 308.321 161.73 305.402 161.967C305.578 162.282 305.751 162.72 305.836 163.025C306.574 162.952 307.313 162.817 308.035 162.631L306.868 166.775L307.908 167.068L308.046 166.577L313.966 168.245L313.843 168.678L314.926 168.983L316.122 164.738C316.621 165.237 317.152 165.729 317.71 166.183C317.954 165.924 318.349 165.63 318.659 165.468C316.605 163.908 314.887 162.208 313.776 159.901C313.914 159.799 314.037 159.694 314.156 159.603L313.336 158.919Z" fill="white"/>
<circle cx="280.5" cy="293.5" r="59" fill="#BEBEBE" stroke="#FEFEFE" stroke-width="3"/>
<path d="M263.828 285H257.007V269.166H263.828C264.809 269.18 265.626 269.295 266.277 269.51C267.387 269.875 268.286 270.545 268.974 271.519C269.525 272.306 269.901 273.159 270.102 274.075C270.302 274.992 270.402 275.866 270.402 276.696C270.402 278.802 269.98 280.585 269.135 282.046C267.989 284.015 266.22 285 263.828 285ZM266.288 273.205C265.78 272.346 264.773 271.916 263.27 271.916H260.219V282.25H263.27C264.831 282.25 265.919 281.48 266.535 279.94C266.872 279.095 267.04 278.089 267.04 276.922C267.04 275.311 266.789 274.072 266.288 273.205ZM271.734 277.416H277.9V280.316H271.734V277.416ZM289.502 281.745H283.669L282.573 285H279.114L284.765 269.166H288.503L294.11 285H290.522L289.502 281.745ZM288.578 279.017L286.602 272.786L284.561 279.017H288.578ZM295.872 269.166H299.159V285H295.872V269.166ZM251.856 302.876H265.078V305.45H267.828V300.434H260.414C260.084 299.664 259.6 298.806 259.16 298.102L256.542 298.916C256.806 299.356 257.07 299.906 257.29 300.434H249.238V305.45H251.856V302.876ZM257.422 305.604C256.74 304.834 255.288 303.91 254.166 303.338L252.648 305.032C253.77 305.692 255.156 306.726 255.772 307.474L257.422 305.604ZM250.404 308.31C251.57 308.948 253 309.96 253.66 310.664L255.222 308.728C254.518 308.024 253.044 307.1 251.9 306.55L250.404 308.31ZM268.092 313.15V310.95H260.128C260.678 308.904 260.81 306.528 260.898 303.822H258.126C258.038 306.66 257.972 309.036 257.312 310.95H249.04V313.15H256.146C254.892 314.712 252.78 315.856 249.216 316.626C249.788 317.198 250.448 318.21 250.668 318.87C255.508 317.704 258.016 315.79 259.336 313.15H268.092ZM259.16 315.504C261.954 316.362 264.836 317.66 266.508 318.804L268.114 316.714C266.332 315.68 263.23 314.382 260.37 313.568L259.16 315.504ZM275.66 312.116C273.548 312.578 271.48 313.04 270.006 313.304L270.424 315.328C272.052 314.954 273.988 314.492 275.858 314.052L275.66 312.116ZM281.49 305.076C282.458 304.13 283.404 303.096 284.218 301.952C285.142 303.03 286.198 304.086 287.32 305.076H281.49ZM281.138 307.276H287.914V305.582C288.596 306.154 289.256 306.638 289.916 307.078C290.158 306.352 290.664 305.142 291.104 304.482C289.146 303.426 286.99 301.622 285.538 299.95C285.736 299.598 285.934 299.246 286.088 298.894L283.822 298.102C282.458 300.896 280.016 303.448 277.442 305.01C277.596 303.074 277.728 300.962 277.816 299.158H270.556V301.358H275.528C275.396 303.866 275.198 306.572 274.956 308.53H273.24C273.394 306.77 273.548 304.702 273.636 302.964L271.414 302.832C271.326 305.296 271.106 308.574 270.842 310.554H276.518C276.32 314.404 276.056 315.988 275.66 316.428C275.44 316.648 275.242 316.692 274.89 316.692C274.494 316.692 273.57 316.67 272.58 316.582C272.954 317.176 273.196 318.034 273.24 318.672C274.296 318.716 275.33 318.716 275.924 318.65C276.628 318.562 277.134 318.386 277.596 317.814C278.256 317.066 278.542 314.91 278.806 309.454C278.828 309.168 278.85 308.508 278.85 308.508H277.156C277.266 307.518 277.376 306.286 277.464 305.01C277.904 305.516 278.674 306.616 278.96 307.122C279.708 306.616 280.412 306.044 281.138 305.406V307.276ZM286.352 313.59C286.22 312.16 285.824 310.07 285.428 308.42L283.448 308.706C283.778 310.334 284.152 312.49 284.262 313.898L286.352 313.59ZM282.92 313.92C282.7 312.534 282.194 310.422 281.644 308.794L279.664 309.322C280.126 310.95 280.654 313.106 280.808 314.514L282.92 313.92ZM288.178 308.552C287.672 310.774 286.616 313.744 285.692 315.746H279.114V317.946H290.51V315.746H287.892C288.794 313.854 289.762 311.28 290.554 309.058L288.178 308.552ZM309.452 302.502V303.844H295.438V302.502H309.452ZM299.354 308.2C300.234 307.54 301.114 306.836 301.906 306.088H305.712L304.634 306.814C304.986 307.1 305.382 307.43 305.778 307.782L299.354 308.2ZM295.328 306.088H298.562C297.682 306.88 296.89 307.474 296.538 307.716C295.944 308.156 295.46 308.442 294.976 308.508C295.24 309.124 295.592 310.29 295.724 310.774C296.604 310.422 297.792 310.334 307.626 309.542C308.11 310.048 308.506 310.532 308.792 310.906L310.86 309.52C310.046 308.53 308.528 307.166 307.186 306.088H309.782V304.328H312.114V300.126H304.282C304.04 299.466 303.666 298.696 303.292 298.058L300.74 298.806C300.96 299.18 301.158 299.664 301.334 300.126H292.886V304.328H295.328V306.088ZM303.82 316.01V314.118H310.552V311.874H303.82V310.202H301.136V311.874H294.734V314.118H301.136V316.01H292.82V318.32H312.312V316.01H303.82Z" fill="black"/>
<circle cx="279.639" cy="292.444" r="231.25" transform="rotate(5.86523 279.639 292.444)" stroke="#FEFEFE" stroke-width="2.5"/>
</svg>
